<?xml version="1.0" encoding="UTF-8" standalone="no"?>
<svg
   xmlns:dc="http://purl.org/dc/elements/1.1/"
   xmlns:cc="http://creativecommons.org/ns#"
   xmlns:rdf="http://www.w3.org/1999/02/22-rdf-syntax-ns#"
   xmlns:svg="http://www.w3.org/2000/svg"
   xmlns="http://www.w3.org/2000/svg"
   xmlns:sodipodi="http://sodipodi.sourceforge.net/DTD/sodipodi-0.dtd"
   xmlns:inkscape="http://www.inkscape.org/namespaces/inkscape"
   xml:space="preserve"
   style="clip-rule:evenodd;fill-rule:evenodd;image-rendering:optimizeQuality;shape-rendering:geometricPrecision;text-rendering:geometricPrecision"
   viewBox="0 0 5120.6875 4295.249"
   x="0px"
   y="0px"
   version="1.1"
   id="svg28"
   sodipodi:docname="charity.svg"
   width="5120.6875"
   height="4295.249"
   inkscape:version="0.92.3 (2405546, 2018-03-11)"><metadata
     id="metadata32"><rdf:RDF><cc:Work
         rdf:about=""><dc:format>image/svg+xml</dc:format><dc:type
           rdf:resource="http://purl.org/dc/dcmitype/StillImage" /><dc:title></dc:title></cc:Work></rdf:RDF></metadata><sodipodi:namedview
     pagecolor="#ffffff"
     bordercolor="#666666"
     borderopacity="1"
     objecttolerance="10"
     gridtolerance="10"
     guidetolerance="10"
     inkscape:pageopacity="0"
     inkscape:pageshadow="2"
     inkscape:window-width="944"
     inkscape:window-height="340"
     id="namedview30"
     showgrid="false"
     fit-margin-top="0"
     fit-margin-left="0"
     fit-margin-right="0"
     fit-margin-bottom="0"
     inkscape:zoom="0.0276549"
     inkscape:cx="2885.6271"
     inkscape:cy="1008.9346"
     inkscape:window-x="964"
     inkscape:window-y="356"
     inkscape:window-maximized="0"
     inkscape:current-layer="svg28" /><defs
     id="defs16"><style
       type="text/css"
       id="style14">
   
    .fil1 {fill:none}
    .fil0 {fill:black;fill-rule:nonzero}
   
  </style></defs><g
     id="g24"
     transform="translate(-853.31247,-1306)"><path
       class="fil0"
       d="m 2253,1650 c 55,-91 114,-163 183,-219 104,-84 228,-125 390,-125 180,0 344,73 462,191 118,118 191,282 191,462 0,306 -150,608 -375,908 -220,293 -508,581 -796,869 l -57,57 -57,-57 c -288,-288 -576,-576 -796,-869 -225,-300 -375,-602 -375,-908 0,-180 73,-344 191,-462 118,-118 282,-191 462,-191 278,0 435,115 574,344 z m 283,-94 c -79,63 -145,162 -211,296 l -71,142 -71,-142 c -129,-257 -255,-386 -502,-386 -136,0 -260,55 -349,145 -89,89 -145,213 -145,349 0,267 137,539 342,812 196,262 458,528 725,795 266,-267 528,-533 725,-795 205,-274 342,-545 342,-812 0,-136 -55,-260 -145,-349 -89,-89 -213,-145 -349,-145 -124,0 -216,30 -291,90 z"
       id="path18"
       inkscape:connector-curvature="0"
       style="fill:#000000;fill-rule:nonzero" /><path
       class="fil0"
       d="m 3891,4737 c 1,44 -33,81 -77,82 -44,1 -81,-33 -82,-77 -5,-137 -116,-175 -145,-182 h -973 c -8,0 -17,-1 -24,-4 -5,-1 -12,-3 -20,-6 l -2,-1 c -164,-52 -460,-154 -740,-250 -304,-104 -589,-202 -649,-219 -90,-25 -148,97 -148,97 v 0 c -1,1 -1,3 -2,4 -42,75 13,150 32,174 l 1893,1052 c 1,1 3,1 4,2 116,67 225,14 246,3 6,-4 12,-7 20,-10 l 1405,-464 c 9,-3 18,-5 28,-5 h 313 c 44,0 80,36 80,80 0,44 -36,80 -80,80 h -301 l -1390,459 c -43,23 -218,101 -401,-5 l -2,-1 L 971,4487 c -7,-4 -13,-9 -18,-14 v 0 c 0,-1 -170,-172 -66,-366 v 0 c 0,-1 114,-243 334,-182 71,20 355,117 658,221 166,57 337,116 479,164 -5,-26 -8,-55 -8,-86 v 0 0 -1 -1 c 5,-288 291,-321 291,-321 3,0 7,-1 10,-1 v 0 h 732 c 97,-44 596,-266 865,-314 1,0 2,0 3,0 120,-21 269,-28 404,-28 136,0 255,5 318,9 44,3 78,40 75,84 -3,44 -40,78 -84,75 -63,-4 -180,-9 -308,-9 -126,0 -265,7 -377,26 -1,0 -2,0 -3,1 -263,47 -775,278 -837,306 -12,7 -25,10 -39,10 h -744 c -28,5 -145,34 -147,166 v 0 c 0,31 4,56 11,77 8,22 19,40 32,53 21,22 44,34 59,39 l 3,1 c 2,0 3,1 5,2 l 2,1 h 973 v 0 c 5,0 10,0 15,1 1,0 271,49 281,336 z"
       id="path20"
       inkscape:connector-curvature="0"
       style="fill:#000000;fill-rule:nonzero" /><path
       class="fil0"
       d="m 5794,3367 h -697 c -5,0 -10,2 -13,5 v 0 0 c -4,4 -6,8 -6,13 v 1881 c 0,5 2,10 6,13 1,1 1,1 2,2 3,2 7,4 12,4 h 697 c 5,0 10,-2 13,-6 1,-1 1,-1 2,-2 2,-3 4,-7 4,-12 V 3384 c 0,-5 -2,-10 -5,-13 v 0 0 c -4,-4 -8,-6 -13,-6 z m -697,-160 h 697 c 49,0 94,20 127,53 v 0 c 33,33 53,77 53,126 v 1881 c 0,46 -18,89 -47,121 -2,2 -4,4 -5,6 -32,32 -77,53 -127,53 h -697 c -46,0 -89,-18 -121,-47 -2,-2 -4,-4 -6,-5 -32,-32 -53,-77 -53,-127 V 3387 c 0,-49 20,-94 53,-127 v 0 c 33,-33 77,-53 126,-53 z"
       id="path22"
       inkscape:connector-curvature="0"
       style="fill:#000000;fill-rule:nonzero" /></g><rect
     class="fil1"
     width="6827"
     height="6827"
     id="rect26"
     x="-853.3125"
     y="-1306"
     style="fill:none" /></svg>