<svg xmlns="http://www.w3.org/2000/svg" xmlns:xlink="http://www.w3.org/1999/xlink" version="1.1" x="0px" y="0px" viewBox="0 0 24 30" enable-background="new 0 0 24 24" xml:space="preserve"><g><path d="M1.63,21.903l5.265,1.97c0.044,0.016,0.181,0.041,0.228,0.041c0.027,0,0.056-0.003,0.083-0.009l7.928-1.691   c0.762,1.065,2.039,1.7,3.472,1.7c2.39,0,4.191-1.703,4.191-3.961c0-0.131-0.027-0.254-0.039-0.382   c0.003-0.021,0.012-0.039,0.012-0.061v-3.358c0-2.533-0.408-4.474-0.841-6.528c-0.438-2.083-0.89-4.235-0.981-7.251h0.221h0.294   c0.221,0,0.4-0.179,0.4-0.4v-0.43c0-0.803-0.654-1.456-1.457-1.456H16.37c-0.803,0-1.456,0.653-1.456,1.456v0.43   c0,0.221,0.18,0.4,0.4,0.4h0.384h0.214c-0.076,2.451-0.398,4.35-0.774,6.172l-1.385-1.661V4.583c0-0.187-0.081-0.366-0.224-0.493   c-0.14-0.123-0.326-0.18-0.514-0.158L5.944,4.792C5.616,4.834,5.369,5.114,5.369,5.444v2.475l-3.875,2.529   c-0.002,0.001-0.005,0.001-0.007,0.003c-0.002,0.001-0.002,0.003-0.004,0.005l-0.006,0.004c-0.058,0.038-0.098,0.091-0.128,0.148   c-0.084,0.112-0.145,0.24-0.145,0.384v10.298C1.204,21.561,1.376,21.808,1.63,21.903z M14.721,21.484l-7.287,1.554l0.034-10.006   l8.712-1.864v5.367c-1.101,0.78-1.767,2.044-1.767,3.418C14.413,20.489,14.521,21.008,14.721,21.484z M18.604,23.114   c-1.239,0-2.334-0.564-2.928-1.51c-0.308-0.488-0.463-1.044-0.463-1.651c0-1.263,0.694-2.414,1.813-3.002   c0.482-0.254,1.027-0.389,1.577-0.389c1.87,0,3.391,1.521,3.391,3.391C21.995,21.755,20.538,23.114,18.604,23.114z M18.968,14.398   c-0.124,0.167-0.202,0.345-0.258,0.522c-0.098-0.102-0.219-0.184-0.373-0.23c-0.21-0.062-0.434,0.057-0.497,0.269   s0.057,0.435,0.269,0.498c0.055,0.016,0.093,0.158,0.106,0.328c-0.426,0.04-0.842,0.145-1.234,0.31v-5.104   c0-0.016-0.009-0.03-0.01-0.046c0.109-0.271,0.221-0.536,0.347-0.773h2.169c0.237,0.474,0.803,1.762,1.009,3.466   C19.797,13.715,19.293,13.963,18.968,14.398z M20.965,14.402c0.055,0,0.112,0.001,0.171,0.003   c-0.053,0.582-0.632,1.006-1.729,1.264c-0.011-0.239,0.02-0.551,0.205-0.796C19.848,14.561,20.303,14.402,20.965,14.402z    M21.969,16.152v1.325c-0.408-0.553-0.947-1-1.573-1.298c1.05-0.431,1.425-1.04,1.512-1.579   C21.943,15.098,21.969,15.608,21.969,16.152z M15.715,1.573v-0.03c0-0.362,0.294-0.656,0.655-0.656h4.035   c0.362,0,0.656,0.294,0.656,0.656L15.715,1.573z M16.713,2.373h3.434c0.092,3.099,0.554,5.292,1,7.416   c0.275,1.311,0.529,2.589,0.681,3.988c-0.065-0.077-0.157-0.13-0.265-0.142c-0.098-0.01-0.174-0.002-0.267-0.008   c-0.268-2.373-1.182-3.986-1.223-4.056c-0.072-0.123-0.203-0.198-0.346-0.198h-2.645c-0.143,0-0.274,0.076-0.346,0.199   c-0.1,0.172-0.195,0.357-0.286,0.547l-0.659-0.79C16.23,7.269,16.629,5.179,16.713,2.373z M13.188,7.457l2.501,2.999l-8.339,1.784   L6.279,8.466L13.188,7.457z M6.17,5.571l6.782-0.826v1.938L6.17,7.673V5.571z M5.533,8.768l0.932,3.282l-3.758-1.438L5.533,8.768z    M2.005,11.2l4.662,1.783L6.658,15.8l-4.653-1.55V11.2z M2.005,15.093l4.65,1.549l-0.009,2.746l-4.641-1.621V15.093z M2.005,18.614   l4.638,1.62l-0.009,2.687l-4.629-1.732V18.614z"/><path d="M13.683,13.94l-4.004,0.857c-0.013,0.003-0.022,0.011-0.035,0.015c-0.026,0.008-0.05,0.019-0.073,0.032   c-0.022,0.012-0.043,0.025-0.062,0.042c-0.02,0.017-0.037,0.035-0.053,0.055c-0.016,0.02-0.03,0.039-0.042,0.062   c-0.012,0.022-0.021,0.045-0.028,0.07c-0.008,0.026-0.013,0.051-0.016,0.078c-0.001,0.013-0.007,0.024-0.008,0.037l-0.016,4.695   c0,0.005,0.003,0.01,0.003,0.015c0.001,0.028,0.01,0.054,0.016,0.081c0.006,0.024,0.009,0.048,0.018,0.07   c0.01,0.023,0.027,0.042,0.042,0.063c0.015,0.021,0.027,0.043,0.046,0.061c0.016,0.016,0.037,0.025,0.056,0.038   c0.025,0.016,0.048,0.034,0.076,0.045c0.004,0.002,0.007,0.005,0.012,0.007c0.042,0.015,0.125,0.029,0.17,0.029   c0.027,0,0.056-0.003,0.083-0.009l4.029-0.859c0.237-0.052,0.403-0.257,0.403-0.5v-4.481c0-0.157-0.07-0.303-0.192-0.4   C14.017,13.966,13.8,13.917,13.683,13.94z M13.501,18.689l-3.352,0.715l0.013-3.892l3.339-0.715V18.689z"/></g></svg>