<?xml version="1.0" encoding="UTF-8" standalone="no"?>
<svg
   xmlns:dc="http://purl.org/dc/elements/1.1/"
   xmlns:cc="http://creativecommons.org/ns#"
   xmlns:rdf="http://www.w3.org/1999/02/22-rdf-syntax-ns#"
   xmlns:svg="http://www.w3.org/2000/svg"
   xmlns="http://www.w3.org/2000/svg"
   xmlns:sodipodi="http://sodipodi.sourceforge.net/DTD/sodipodi-0.dtd"
   xmlns:inkscape="http://www.inkscape.org/namespaces/inkscape"
   version="1.1"
   x="0px"
   y="0px"
   viewBox="0 0 21.593 23.827"
   enable-background="new 0 0 24 24"
   xml:space="preserve"
   id="svg8"
   sodipodi:docname="food.svg"
   width="21.593"
   height="23.827"
   inkscape:version="0.92.3 (2405546, 2018-03-11)"><metadata
     id="metadata14"><rdf:RDF><cc:Work
         rdf:about=""><dc:format>image/svg+xml</dc:format><dc:type
           rdf:resource="http://purl.org/dc/dcmitype/StillImage" /><dc:title></dc:title></cc:Work></rdf:RDF></metadata><defs
     id="defs12" /><sodipodi:namedview
     pagecolor="#ffffff"
     bordercolor="#666666"
     borderopacity="1"
     objecttolerance="10"
     gridtolerance="10"
     guidetolerance="10"
     inkscape:pageopacity="0"
     inkscape:pageshadow="2"
     inkscape:window-width="944"
     inkscape:window-height="335"
     id="namedview10"
     showgrid="false"
     fit-margin-top="0"
     fit-margin-left="0"
     fit-margin-right="0"
     fit-margin-bottom="0"
     inkscape:zoom="7.8666667"
     inkscape:cx="-10.369254"
     inkscape:cy="8.914"
     inkscape:window-x="964"
     inkscape:window-y="708"
     inkscape:window-maximized="0"
     inkscape:current-layer="svg8" /><g
     id="g6"
     transform="translate(-1.204,-0.087)"><path
       d="m 1.63,21.903 5.265,1.97 c 0.044,0.016 0.181,0.041 0.228,0.041 0.027,0 0.056,-0.003 0.083,-0.009 l 7.928,-1.691 c 0.762,1.065 2.039,1.7 3.472,1.7 2.39,0 4.191,-1.703 4.191,-3.961 0,-0.131 -0.027,-0.254 -0.039,-0.382 0.003,-0.021 0.012,-0.039 0.012,-0.061 v -3.358 c 0,-2.533 -0.408,-4.474 -0.841,-6.528 -0.438,-2.083 -0.89,-4.235 -0.981,-7.251 h 0.221 0.294 c 0.221,0 0.4,-0.179 0.4,-0.4 v -0.43 c 0,-0.803 -0.654,-1.456 -1.457,-1.456 H 16.37 c -0.803,0 -1.456,0.653 -1.456,1.456 v 0.43 c 0,0.221 0.18,0.4 0.4,0.4 h 0.384 0.214 c -0.076,2.451 -0.398,4.35 -0.774,6.172 L 13.753,6.884 V 4.583 C 13.753,4.396 13.672,4.217 13.529,4.09 13.389,3.967 13.203,3.91 13.015,3.932 L 5.944,4.792 C 5.616,4.834 5.369,5.114 5.369,5.444 V 7.919 L 1.494,10.448 C 1.492,10.449 1.489,10.449 1.487,10.451 1.485,10.452 1.485,10.454 1.483,10.456 L 1.477,10.46 C 1.419,10.498 1.379,10.551 1.349,10.608 1.265,10.72 1.204,10.848 1.204,10.992 V 21.29 c 0,0.271 0.172,0.518 0.426,0.613 z M 14.721,21.484 7.434,23.038 7.468,13.032 16.18,11.168 v 5.367 c -1.101,0.78 -1.767,2.044 -1.767,3.418 0,0.536 0.108,1.055 0.308,1.531 z m 3.883,1.63 c -1.239,0 -2.334,-0.564 -2.928,-1.51 -0.308,-0.488 -0.463,-1.044 -0.463,-1.651 0,-1.263 0.694,-2.414 1.813,-3.002 0.482,-0.254 1.027,-0.389 1.577,-0.389 1.87,0 3.391,1.521 3.391,3.391 0.001,1.802 -1.456,3.161 -3.39,3.161 z m 0.364,-8.716 c -0.124,0.167 -0.202,0.345 -0.258,0.522 -0.098,-0.102 -0.219,-0.184 -0.373,-0.23 -0.21,-0.062 -0.434,0.057 -0.497,0.269 -0.063,0.212 0.057,0.435 0.269,0.498 0.055,0.016 0.093,0.158 0.106,0.328 -0.426,0.04 -0.842,0.145 -1.234,0.31 v -5.104 c 0,-0.016 -0.009,-0.03 -0.01,-0.046 0.109,-0.271 0.221,-0.536 0.347,-0.773 h 2.169 c 0.237,0.474 0.803,1.762 1.009,3.466 -0.699,0.077 -1.203,0.325 -1.528,0.76 z m 1.997,0.004 c 0.055,0 0.112,0.001 0.171,0.003 -0.053,0.582 -0.632,1.006 -1.729,1.264 -0.011,-0.239 0.02,-0.551 0.205,-0.796 0.236,-0.312 0.691,-0.471 1.353,-0.471 z m 1.004,1.75 v 1.325 c -0.408,-0.553 -0.947,-1 -1.573,-1.298 1.05,-0.431 1.425,-1.04 1.512,-1.579 0.035,0.498 0.061,1.008 0.061,1.552 z M 15.715,1.573 v -0.03 c 0,-0.362 0.294,-0.656 0.655,-0.656 h 4.035 c 0.362,0 0.656,0.294 0.656,0.656 z m 0.998,0.8 h 3.434 c 0.092,3.099 0.554,5.292 1,7.416 0.275,1.311 0.529,2.589 0.681,3.988 C 21.763,13.7 21.671,13.647 21.563,13.635 21.465,13.625 21.389,13.633 21.296,13.627 21.028,11.254 20.114,9.641 20.073,9.571 20.001,9.448 19.87,9.373 19.727,9.373 h -2.645 c -0.143,0 -0.274,0.076 -0.346,0.199 -0.1,0.172 -0.195,0.357 -0.286,0.547 l -0.659,-0.79 c 0.439,-2.06 0.838,-4.15 0.922,-6.956 z M 13.188,7.457 15.689,10.456 7.35,12.24 6.279,8.466 Z M 6.17,5.571 12.952,4.745 V 6.683 L 6.17,7.673 Z M 5.533,8.768 6.465,12.05 2.707,10.612 Z M 2.005,11.2 6.667,12.983 6.658,15.8 2.005,14.25 Z m 0,3.893 4.65,1.549 -0.009,2.746 -4.641,-1.621 z m 0,3.521 4.638,1.62 -0.009,2.687 -4.629,-1.732 z"
       id="path2"
       inkscape:connector-curvature="0" /><path
       d="M 13.683,13.94 9.679,14.797 C 9.666,14.8 9.657,14.808 9.644,14.812 9.618,14.82 9.594,14.831 9.571,14.844 9.549,14.856 9.528,14.869 9.509,14.886 9.489,14.903 9.472,14.921 9.456,14.941 9.44,14.961 9.426,14.98 9.414,15.003 9.402,15.025 9.393,15.048 9.386,15.073 9.378,15.099 9.373,15.124 9.37,15.151 9.369,15.164 9.363,15.175 9.362,15.188 l -0.016,4.695 c 0,0.005 0.003,0.01 0.003,0.015 10e-4,0.028 0.01,0.054 0.016,0.081 0.006,0.024 0.009,0.048 0.018,0.07 0.01,0.023 0.027,0.042 0.042,0.063 0.015,0.021 0.027,0.043 0.046,0.061 0.016,0.016 0.037,0.025 0.056,0.038 0.025,0.016 0.048,0.034 0.076,0.045 0.004,0.002 0.007,0.005 0.012,0.007 0.042,0.015 0.125,0.029 0.17,0.029 0.027,0 0.056,-0.003 0.083,-0.009 l 4.029,-0.859 c 0.237,-0.052 0.403,-0.257 0.403,-0.5 v -4.481 c 0,-0.157 -0.07,-0.303 -0.192,-0.4 C 14.017,13.966 13.8,13.917 13.683,13.94 Z m -0.182,4.749 -3.352,0.715 0.013,-3.892 3.339,-0.715 z"
       id="path4"
       inkscape:connector-curvature="0" /></g></svg>