<?xml version="1.0" encoding="UTF-8" standalone="no"?>
<svg
   xmlns:dc="http://purl.org/dc/elements/1.1/"
   xmlns:cc="http://creativecommons.org/ns#"
   xmlns:rdf="http://www.w3.org/1999/02/22-rdf-syntax-ns#"
   xmlns:svg="http://www.w3.org/2000/svg"
   xmlns="http://www.w3.org/2000/svg"
   xmlns:sodipodi="http://sodipodi.sourceforge.net/DTD/sodipodi-0.dtd"
   xmlns:inkscape="http://www.inkscape.org/namespaces/inkscape"
   version="1.1"
   x="0px"
   y="0px"
   viewBox="0 0 70 80.000008"
   id="svg6"
   sodipodi:docname="lock.svg"
   width="70"
   height="80.000008"
   inkscape:version="0.92.3 (2405546, 2018-03-11)">
  <metadata
     id="metadata12">
    <rdf:RDF>
      <cc:Work
         rdf:about="">
        <dc:format>image/svg+xml</dc:format>
        <dc:type
           rdf:resource="http://purl.org/dc/dcmitype/StillImage" />
        <dc:title></dc:title>
      </cc:Work>
    </rdf:RDF>
  </metadata>
  <defs
     id="defs10" />
  <sodipodi:namedview
     pagecolor="#ffffff"
     bordercolor="#666666"
     borderopacity="1"
     objecttolerance="10"
     gridtolerance="10"
     guidetolerance="10"
     inkscape:pageopacity="0"
     inkscape:pageshadow="2"
     inkscape:window-width="944"
     inkscape:window-height="1035"
     id="namedview8"
     showgrid="false"
     fit-margin-top="0"
     fit-margin-left="0"
     fit-margin-right="0"
     fit-margin-bottom="0"
     inkscape:zoom="1.888"
     inkscape:cx="-53.188559"
     inkscape:cy="27.50002"
     inkscape:window-x="964"
     inkscape:window-y="8"
     inkscape:window-maximized="0"
     inkscape:current-layer="svg6" />
  <g
     transform="translate(-15,-962.36219)"
     id="g4">
    <path
       d="m 50,962.36219 c -12.6901,0 -23,10.3099 -23,23 v 7 h -5 c -3.8261,0 -7,3.17389 -7,6.99999 v 36.00002 c 0,3.8261 3.1739,7 7,7 h 56 c 3.8261,0 7,-3.1739 7,-7 v -36.00002 c 0,-3.8261 -3.1739,-6.99999 -7,-6.99999 h -5 v -7 c 0,-12.6901 -10.3099,-23 -23,-23 z m 0,6 c 9.4699,0 17,7.5301 17,17 v 7 H 33 v -7 c 0,-9.4699 7.5301,-17 17,-17 z m -28,29.99999 h 56 c 0.6059,0 1,0.3941 1,1 v 36.00002 c 0,0.6059 -0.3941,1 -1,1 H 22 c -0.6059,0 -1,-0.3941 -1,-1 v -36.00002 c 0,-0.6059 0.3941,-1 1,-1 z m 28,6.00002 c -4.935,0 -9,4.065 -9,9 0,2.0459 0.8373,3.8249 2,5.3437 v 4.6563 c 0,3.8261 3.1739,7 7,7 3.8261,0 7,-3.1739 7,-7 v -4.6563 c 1.1627,-1.5188 2,-3.2978 2,-5.3437 0,-4.935 -4.065,-9 -9,-9 z m 0,6 c 1.6924,0 3,1.3076 3,3 0,0.9054 -0.3808,1.6641 -1,2.2187 -0.6303,0.5638 -1.0039,1.4043 -1,2.25 v 5.5313 c 0,0.6059 -0.3941,1 -1,1 -0.6059,0 -1,-0.3941 -1,-1 v -5.5313 c 0,-0.8457 -0.3697,-1.6862 -1,-2.25 -0.6192,-0.5546 -1,-1.3133 -1,-2.2187 0,-1.6924 1.3076,-3 3,-3 z"
       style="color:#000000;text-indent:0;text-transform:none;direction:ltr;baseline-shift:baseline;display:inline;overflow:visible;visibility:visible;fill:#000000;fill-opacity:1;stroke:none;enable-background:accumulate"
       marker="none"
       visibility="visible"
       display="inline"
       overflow="visible"
       id="path2"
       inkscape:connector-curvature="0" />
  </g>
</svg>
