<?xml version="1.0" encoding="UTF-8" standalone="no"?>
<svg
   xmlns:dc="http://purl.org/dc/elements/1.1/"
   xmlns:cc="http://creativecommons.org/ns#"
   xmlns:rdf="http://www.w3.org/1999/02/22-rdf-syntax-ns#"
   xmlns:svg="http://www.w3.org/2000/svg"
   xmlns="http://www.w3.org/2000/svg"
   xmlns:sodipodi="http://sodipodi.sourceforge.net/DTD/sodipodi-0.dtd"
   xmlns:inkscape="http://www.inkscape.org/namespaces/inkscape"
   xml:space="preserve"
   style="clip-rule:evenodd;fill-rule:evenodd;image-rendering:optimizeQuality;shape-rendering:geometricPrecision;text-rendering:geometricPrecision"
   viewBox="0 0 2676.2754 5200"
   x="0px"
   y="0px"
   version="1.1"
   id="svg20"
   sodipodi:docname="pension.svg"
   width="2676.2754"
   height="5200"
   inkscape:version="0.92.3 (2405546, 2018-03-11)"><metadata
     id="metadata24"><rdf:RDF><cc:Work
         rdf:about=""><dc:format>image/svg+xml</dc:format><dc:type
           rdf:resource="http://purl.org/dc/dcmitype/StillImage" /><dc:title></dc:title></cc:Work></rdf:RDF></metadata><sodipodi:namedview
     pagecolor="#ffffff"
     bordercolor="#666666"
     borderopacity="1"
     objecttolerance="10"
     gridtolerance="10"
     guidetolerance="10"
     inkscape:pageopacity="0"
     inkscape:pageshadow="2"
     inkscape:window-width="944"
     inkscape:window-height="340"
     id="namedview22"
     showgrid="false"
     fit-margin-top="0"
     fit-margin-left="0"
     fit-margin-right="0"
     fit-margin-bottom="0"
     inkscape:zoom="0.0276549"
     inkscape:cx="-4543.1329"
     inkscape:cy="1791.125"
     inkscape:window-x="964"
     inkscape:window-y="356"
     inkscape:window-maximized="0"
     inkscape:current-layer="svg20" /><defs
     id="defs4"><style
       type="text/css"
       id="style2">
   
    .fil1 {fill:none}
    .fil0 {fill:black;fill-rule:nonzero}
   
  </style></defs><g
     id="g16"
     transform="translate(-1936,-858)"><path
       class="fil0"
       d="m 2766,3192 c 44,0 80,36 80,80 0,44 -36,80 -80,80 -89,0 -168,29 -225,77 -53,44 -86,105 -86,170 v 2379 c 0,44 -36,80 -80,80 -44,0 -80,-36 -80,-80 V 3599 c 0,-115 55,-219 143,-293 84,-71 200,-115 327,-115 z"
       id="path6"
       inkscape:connector-curvature="0"
       style="fill:#000000;fill-rule:nonzero" /><path
       class="fil0"
       d="m 3655,2056 c -79,-52 -172,-68 -258,-52 -88,17 -169,67 -224,146 -54,80 -71,174 -55,262 15,79 57,153 123,207 12,-18 23,-38 34,-60 25,-49 46,-105 63,-170 v 0 0 0 c 0,-1 0,-2 1,-3 18,-66 60,-119 115,-151 54,-32 121,-44 187,-28 2,0 5,1 7,2 65,18 118,60 150,114 32,54 44,121 28,187 -1,4 -2,7 -3,11 -34,130 -81,241 -135,333 -46,79 -98,145 -152,201 82,270 98,620 78,972 -30,522 -138,1053 -222,1327 l -1,2 v 0 1 l -90,337 c -7,25 -3,50 9,70 12,20 31,36 56,43 25,7 50,3 70,-9 20,-12 36,-31 43,-56 l 91,-339 292,-1333 78,17 -78,-17 c 9,-43 52,-70 95,-61 34,8 59,36 62,69 l 254,1668 c 7,23 22,41 42,52 20,12 45,16 70,9 25,-7 44,-22 56,-43 12,-20 16,-45 9,-70 v 0 c -1,-2 -1,-4 -1,-7 -91,-508 -87,-1006 -83,-1472 7,-903 13,-1683 -704,-2156 l 44,-66 -44,67 c -2,-1 -3,-2 -5,-3 z m -287,-209 c 126,-24 261,0 376,77 1,1 3,2 4,2 v 0 l 1,1 v 0 c 788,521 782,1340 775,2289 -4,457 -7,945 81,1442 16,65 5,131 -27,186 -32,56 -86,99 -153,117 -67,18 -135,7 -191,-25 -54,-31 -97,-83 -116,-148 -1,-4 -3,-9 -3,-14 l 79,-12 -79,12 -190,-1250 -200,911 c 0,2 -1,5 -2,7 v 0 l -91,341 c -18,67 -61,121 -117,153 -56,32 -124,43 -191,25 -67,-18 -121,-61 -153,-117 -32,-56 -43,-124 -25,-191 l 90,-337 c 1,-2 1,-5 2,-7 l 76,24 -76,-24 c 82,-264 187,-781 216,-1290 20,-353 3,-701 -83,-954 -13,-30 -7,-67 19,-90 v 0 c 57,-53 112,-119 160,-200 48,-81 88,-178 119,-293 0,-2 1,-5 1,-7 v 0 c 6,-25 2,-49 -10,-70 -12,-20 -31,-35 -54,-41 h -2 v 0 c -25,-6 -49,-2 -70,10 -20,12 -35,31 -41,54 v 2 0 c -20,78 -46,145 -75,203 -29,57 -62,106 -96,147 -1,2 -3,3 -4,5 -29,34 -79,37 -113,9 v 0 c -6,-5 -11,-10 -16,-13 -4,-3 -9,-7 -15,-11 -116,-79 -189,-198 -213,-326 -24,-128 1,-265 80,-381 79,-116 198,-189 326,-213 z"
       id="path8"
       inkscape:connector-curvature="0"
       style="fill:#000000;fill-rule:nonzero" /><path
       class="fil0"
       d="m 2844,3012 c -25,0 -48,10 -65,26 -17,16 -28,39 -28,65 0,25 10,48 26,65 16,17 39,27 63,28 v 0 0 h 2 c 7,0 639,16 829,-721 v -2 c 6,-25 2,-49 -10,-70 -12,-20 -31,-35 -56,-42 v 0 m -937,562 c 46,-45 109,-72 178,-71 v 0 0 h 2 c 4,0 370,10 492,-465 v 0 c 17,-67 60,-121 115,-154 55,-33 123,-45 190,-27 v 0 c 67,17 121,60 154,115 33,55 45,123 27,190 v 0 0 c -216,842 -944,843 -985,843 v 0 0 h -1 -1 v 0 c -69,-1 -131,-30 -176,-76 -45,-46 -72,-109 -71,-179 1,-69 30,-132 76,-176 z m 937,-562 c -25,-6 -49,-2 -70,10 -20,12 -36,31 -42,56 v 0 c -149,579 -615,585 -648,585 v 0 0 h -1 -1 v 0"
       id="path10"
       inkscape:connector-curvature="0"
       style="fill:#000000;fill-rule:nonzero" /><path
       class="fil0"
       d="m 2855,858 c 148,0 282,60 379,157 97,97 157,231 157,379 0,148 -60,282 -157,379 -97,97 -231,157 -379,157 -148,0 -282,-60 -379,-157 -97,-97 -157,-231 -157,-379 0,-148 60,-282 157,-379 97,-97 231,-157 379,-157 z m 266,270 c -68,-68 -162,-110 -266,-110 -104,0 -198,42 -266,110 -68,68 -110,162 -110,266 0,104 42,198 110,266 68,68 162,110 266,110 104,0 198,-42 266,-110 68,-68 110,-162 110,-266 0,-104 -42,-198 -110,-266 z"
       id="path12"
       inkscape:connector-curvature="0"
       style="fill:#000000;fill-rule:nonzero" /><path
       class="fil0"
       d="m 1936,4887 140,-12 c 7,56 22,102 46,138 24,36 62,65 113,87 51,22 108,33 172,33 57,0 106,-8 150,-25 43,-17 76,-40 97,-69 21,-29 32,-61 32,-96 0,-35 -10,-66 -31,-92 -20,-26 -54,-48 -101,-66 -30,-12 -97,-30 -200,-55 -103,-25 -175,-48 -216,-70 -53,-28 -93,-63 -120,-104 -26,-41 -39,-88 -39,-140 0,-56 16,-109 48,-158 32,-49 79,-87 141,-112 62,-25 130,-38 206,-38 83,0 156,13 220,40 63,27 112,66 146,118 34,52 52,111 55,177 l -142,11 c -8,-71 -34,-124 -78,-160 -44,-36 -109,-54 -195,-54 -90,0 -155,16 -196,49 -41,33 -62,73 -62,119 0,40 15,74 44,99 29,26 103,53 224,80 121,27 203,51 248,71 65,30 113,68 145,114 31,46 46,99 46,159 0,60 -17,116 -51,169 -34,53 -83,94 -147,123 -64,29 -136,44 -216,44 -101,0 -187,-15 -255,-44 -69,-29 -122,-74 -161,-133 -39,-59 -59,-127 -61,-201 z"
       id="path14"
       inkscape:connector-curvature="0"
       style="fill:#000000;fill-rule:nonzero" /></g><rect
     class="fil1"
     width="6827"
     height="6827"
     id="rect18"
     x="-1936"
     y="-858"
     style="fill:none" /></svg>