<?xml version="1.0" encoding="UTF-8" standalone="no"?>
<svg
   xmlns:dc="http://purl.org/dc/elements/1.1/"
   xmlns:cc="http://creativecommons.org/ns#"
   xmlns:rdf="http://www.w3.org/1999/02/22-rdf-syntax-ns#"
   xmlns:svg="http://www.w3.org/2000/svg"
   xmlns="http://www.w3.org/2000/svg"
   xmlns:sodipodi="http://sodipodi.sourceforge.net/DTD/sodipodi-0.dtd"
   xmlns:inkscape="http://www.inkscape.org/namespaces/inkscape"
   version="1.1"
   x="0px"
   y="0px"
   viewBox="0 0 801.62219 734.39624"
   xml:space="preserve"
   id="svg62"
   sodipodi:docname="school.svg"
   width="801.62219"
   height="734.39624"
   inkscape:version="0.92.3 (2405546, 2018-03-11)"><metadata
     id="metadata68"><rdf:RDF><cc:Work
         rdf:about=""><dc:format>image/svg+xml</dc:format><dc:type
           rdf:resource="http://purl.org/dc/dcmitype/StillImage" /><dc:title></dc:title></cc:Work></rdf:RDF></metadata><defs
     id="defs66" /><sodipodi:namedview
     pagecolor="#ffffff"
     bordercolor="#666666"
     borderopacity="1"
     objecttolerance="10"
     gridtolerance="10"
     guidetolerance="10"
     inkscape:pageopacity="0"
     inkscape:pageshadow="2"
     inkscape:window-width="944"
     inkscape:window-height="1035"
     id="namedview64"
     showgrid="false"
     fit-margin-top="0"
     fit-margin-left="0"
     fit-margin-right="0"
     fit-margin-bottom="0"
     inkscape:zoom="0.184375"
     inkscape:cx="-501.73974"
     inkscape:cy="234.1"
     inkscape:window-x="964"
     inkscape:window-y="8"
     inkscape:window-maximized="0"
     inkscape:current-layer="svg62" /><g
     id="g6"
     transform="translate(-110.68889,-139.70376)"><g
       id="g4"><path
         d="m 663,421.3 c 0,14.7 0,29.4 0,44.1 0,35.2 0,70.3 0,105.5 0,42.7 0,85.4 0,128.1 0,36.8 0,73.6 0,110.3 0,12.2 0,24.4 0,36.5 0,5.7 -0.5,11.7 0,17.3 0,0.2 0,0.5 0,0.8 3.3,-3.3 6.7,-6.7 10,-10 -36.1,0 -72.3,0 -108.4,0 -57.6,0 -115.2,0 -172.8,0 -13.2,0 -26.5,0 -39.7,0 3.3,3.3 6.7,6.7 10,10 0,-14.7 0,-29.4 0,-44.1 0,-35.2 0,-70.3 0,-105.5 0,-42.7 0,-85.4 0,-128.1 0,-36.8 0,-73.6 0,-110.3 0,-12.2 0,-24.4 0,-36.5 0,-5.7 0.5,-11.7 0,-17.3 0,-0.2 0,-0.5 0,-0.8 -1,2.4 -2,4.7 -2.9,7.1 18.1,-17.1 36.2,-34.2 54.2,-51.3 28.8,-27.3 57.6,-54.6 86.5,-81.8 6.6,-6.3 13.3,-12.5 19.9,-18.8 -4.7,0 -9.4,0 -14.1,0 18.1,17.1 36.1,34.2 54.2,51.3 28.8,27.3 57.6,54.6 86.4,81.8 6.6,6.3 13.2,12.5 19.9,18.8 9.3,8.9 23.5,-5.3 14.1,-14.1 C 662,397.1 644,380 625.9,362.9 c -28.8,-27.3 -57.6,-54.6 -86.4,-81.8 -6.6,-6.3 -13.2,-12.5 -19.9,-18.8 -4,-3.8 -10.1,-3.8 -14.1,0 -33.9,32.1 -67.9,64.2 -101.8,96.4 -17.5,16.6 -35.1,33.2 -52.6,49.8 -4,3.8 -8.7,7 -9.1,13 -0.2,2.9 0,5.8 0,8.7 0,44.2 0,88.5 0,132.7 0,62.9 0,125.8 0,188.7 0,36.9 -0.6,73.8 0,110.7 0,0.6 0,1.1 0,1.7 0,5.4 4.6,10 10,10 36.1,0 72.3,0 108.4,0 57.6,0 115.2,0 172.8,0 13.2,0 26.5,0 39.7,0 5.4,0 10,-4.6 10,-10 0,-14.7 0,-29.4 0,-44.1 0,-35.2 0,-70.3 0,-105.5 0,-42.7 0,-85.4 0,-128.1 0,-36.8 0,-73.6 0,-110.3 0,-17.9 0.7,-36 0,-53.9 0,-0.3 0,-0.5 0,-0.8 0.1,-12.9 -19.9,-12.9 -19.9,0 z"
         id="path2"
         inkscape:connector-curvature="0" /></g></g><g
     id="g12"
     transform="translate(-110.68889,-139.70376)"><g
       id="g10"><path
         d="m 575.2,854 c -36.1,0 -72.2,0 -108.3,0 -5.1,0 -10.3,0 -15.4,0 3.3,3.3 6.7,6.7 10,10 0,-21.6 0,-43.2 0,-64.8 0,-34.3 0,-68.5 0,-102.8 0,-7.9 0,-15.9 0,-23.8 -3.3,3.3 -6.7,6.7 -10,10 36.1,0 72.2,0 108.3,0 5.1,0 10.3,0 15.4,0 -3.3,-3.3 -6.7,-6.7 -10,-10 0,21.6 0,43.2 0,64.8 0,34.3 0,68.5 0,102.8 0,7.9 0,15.9 0,23.8 0,12.9 20,12.9 20,0 0,-21.6 0,-43.2 0,-64.8 0,-34.3 0,-68.5 0,-102.8 0,-7.9 0,-15.9 0,-23.8 0,-5.4 -4.6,-10 -10,-10 -36.1,0 -72.2,0 -108.3,0 -5.1,0 -10.3,0 -15.4,0 -5.4,0 -10,4.6 -10,10 0,21.6 0,43.2 0,64.8 0,34.3 0,68.5 0,102.8 0,7.9 0,15.9 0,23.8 0,5.4 4.6,10 10,10 36.1,0 72.2,0 108.3,0 5.1,0 10.3,0 15.4,0 12.8,0 12.8,-20 0,-20 z"
         id="path8"
         inkscape:connector-curvature="0" /></g></g><g
     id="g18"
     transform="translate(-110.68889,-139.70376)"><g
       id="g16"><path
         d="m 121,432 c 26.1,0 52.1,0 78.2,0 41.5,0 83,0 124.4,0 9.5,0 18.9,0 28.4,0 -3.3,-3.3 -6.7,-6.7 -10,-10 0,14.7 0,29.3 0,44 0,35.2 0,70.4 0,105.7 0,42.4 0,84.9 0,127.3 0,36.8 0,73.7 0,110.5 0,12.1 0,24.2 0,36.3 0,5.7 -0.5,11.7 0,17.4 0,0.2 0,0.5 0,0.8 3.3,-3.3 6.7,-6.7 10,-10 -26.1,0 -52.1,0 -78.2,0 -41.5,0 -83,0 -124.4,0 -9.5,0 -18.9,0 -28.4,0 3.3,3.3 6.7,6.7 10,10 0,-14.7 0,-29.3 0,-44 0,-35.2 0,-70.4 0,-105.7 0,-42.4 0,-84.9 0,-127.3 0,-36.8 0,-73.7 0,-110.5 0,-17.9 0.7,-35.9 0,-53.8 0,-0.3 0,-0.5 0,-0.8 0,-12.9 -20,-12.9 -20,0 0,14.7 0,29.3 0,44 0,35.2 0,70.4 0,105.7 0,42.4 0,84.9 0,127.3 0,36.8 0,73.7 0,110.5 0,17.9 -0.7,35.9 0,53.8 0,0.3 0,0.5 0,0.8 0,5.4 4.6,10 10,10 26.1,0 52.1,0 78.2,0 41.5,0 83,0 124.4,0 9.5,0 18.9,0 28.4,0 5.4,0 10,-4.6 10,-10 0,-14.7 0,-29.3 0,-44 0,-35.2 0,-70.4 0,-105.7 0,-42.4 0,-84.9 0,-127.3 0,-36.8 0,-73.7 0,-110.5 0,-17.9 0.7,-35.9 0,-53.8 0,-0.3 0,-0.5 0,-0.8 0,-5.4 -4.6,-10 -10,-10 -26.1,0 -52.1,0 -78.2,0 -41.5,0 -83,0 -124.4,0 -9.5,0 -18.9,0 -28.4,0 -12.9,0.1 -12.9,20.1 0,20.1 z"
         id="path14"
         inkscape:connector-curvature="0" /></g></g><g
     id="g24"
     transform="translate(-110.68889,-139.70376)"><g
       id="g22"><path
         d="m 892,422 c 0,14.7 0,29.3 0,44 0,35.2 0,70.4 0,105.7 0,42.4 0,84.9 0,127.3 0,36.8 0,73.7 0,110.5 0,12.1 0,24.2 0,36.3 0,5.7 -0.5,11.7 0,17.4 0,0.2 0,0.5 0,0.8 3.3,-3.3 6.7,-6.7 10,-10 -25.7,0 -51.4,0 -77.2,0 -41.2,0 -82.4,0 -123.6,0 -9.4,0 -18.8,0 -28.3,0 3.3,3.3 6.7,6.7 10,10 0,-14.7 0,-29.3 0,-44 0,-35.2 0,-70.4 0,-105.7 0,-42.4 0,-84.9 0,-127.3 0,-36.8 0,-73.7 0,-110.5 0,-12.1 0,-24.2 0,-36.3 0,-5.7 0.5,-11.7 0,-17.4 0,-0.2 0,-0.5 0,-0.8 -3.3,3.3 -6.7,6.7 -10,10 25.7,0 51.4,0 77.2,0 41.2,0 82.4,0 123.6,0 9.4,0 18.8,0 28.3,0 12.9,0 12.9,-20 0,-20 -25.7,0 -51.4,0 -77.2,0 -41.2,0 -82.4,0 -123.6,0 -9.4,0 -18.8,0 -28.3,0 -5.4,0 -10,4.6 -10,10 0,14.7 0,29.3 0,44 0,35.2 0,70.4 0,105.7 0,42.4 0,84.9 0,127.3 0,36.8 0,73.7 0,110.5 0,17.9 -0.7,35.9 0,53.8 0,0.3 0,0.5 0,0.8 0,5.4 4.6,10 10,10 25.7,0 51.4,0 77.2,0 41.2,0 82.4,0 123.6,0 9.4,0 18.8,0 28.3,0 5.4,0 10,-4.6 10,-10 0,-14.7 0,-29.3 0,-44 0,-35.2 0,-70.4 0,-105.7 0,-42.4 0,-84.9 0,-127.3 0,-36.8 0,-73.7 0,-110.5 0,-17.9 0.7,-35.9 0,-53.8 0,-0.3 0,-0.5 0,-0.8 0,-12.9 -20,-12.9 -20,0 z"
         id="path20"
         inkscape:connector-curvature="0" /></g></g><g
     id="g30"
     transform="translate(-110.68889,-139.70376)"><g
       id="g28"><path
         d="m 522,269 c 0,-34.7 0,-69.4 0,-104.2 0,-4.9 0,-9.9 0,-14.8 -4.2,3.2 -8.4,6.4 -12.7,9.6 27.1,11.3 54.3,22.7 81.4,34 3.9,1.6 7.7,3.2 11.6,4.8 0,-6.4 0,-12.9 0,-19.3 -27.1,11.3 -54.3,22.7 -81.4,34 -3.9,1.6 -7.7,3.2 -11.6,4.8 -5,2.1 -8.5,6.6 -7,12.3 1.3,4.7 7.3,9.1 12.3,7 27.1,-11.3 54.3,-22.7 81.4,-34 3.9,-1.6 7.7,-3.2 11.6,-4.8 9.4,-3.9 9.4,-15.3 0,-19.3 -27.1,-11.3 -54.3,-22.7 -81.4,-34 -3.9,-1.6 -7.7,-3.2 -11.6,-4.8 -6.2,-2.6 -12.7,3.8 -12.7,9.6 0,34.7 0,69.4 0,104.2 0,4.9 0,9.9 0,14.8 0.1,13 20.1,13 20.1,0.1 z"
         id="path26"
         inkscape:connector-curvature="0" /></g></g><g
     id="g36"
     transform="translate(-110.68889,-139.70376)"><g
       id="g34"><path
         d="m 548.8,501.1 c -0.2,14.5 -9,28 -22.8,33.1 -14.3,5.3 -30.5,0.9 -40.1,-10.9 -9.1,-11.3 -10.2,-27.5 -2.9,-40 7.4,-12.7 22.8,-20 37.3,-16.9 16.6,3.5 28.3,17.8 28.5,34.7 0.2,12.9 20.2,12.9 20,0 -0.4,-23.4 -14.8,-44 -36.9,-52.1 -21.4,-7.9 -46.7,-0.8 -61,16.9 -14.6,18 -17,43.7 -4.9,63.8 12.1,20 35.4,29.9 58.2,25.8 25.8,-4.7 44.1,-28.5 44.5,-54.2 0.3,-13.1 -19.7,-13.1 -19.9,-0.2 z"
         id="path32"
         inkscape:connector-curvature="0" /></g></g><g
     id="g42"
     transform="translate(-110.68889,-139.70376)"><g
       id="g40"><path
         d="m 248,599 c 0,-28.9 0,-57.7 0,-86.6 0,-4.1 0,-8.3 0,-12.4 0,-12.9 -20,-12.9 -20,0 0,28.9 0,57.7 0,86.6 0,4.1 0,8.3 0,12.4 0,12.9 20,12.9 20,0 z"
         id="path38"
         inkscape:connector-curvature="0" /></g></g><g
     id="g48"
     transform="translate(-110.68889,-139.70376)"><g
       id="g46"><path
         d="m 248,786 c 0,-29.2 0,-58.4 0,-87.6 0,-4.1 0,-8.3 0,-12.4 0,-12.9 -20,-12.9 -20,0 0,29.2 0,58.4 0,87.6 0,4.1 0,8.3 0,12.4 0,12.9 20,12.9 20,0 z"
         id="path44"
         inkscape:connector-curvature="0" /></g></g><g
     id="g54"
     transform="translate(-110.68889,-139.70376)"><g
       id="g52"><path
         d="m 798,599 c 0,-28.9 0,-57.7 0,-86.6 0,-4.1 0,-8.3 0,-12.4 0,-12.9 -20,-12.9 -20,0 0,28.9 0,57.7 0,86.6 0,4.1 0,8.3 0,12.4 0,12.9 20,12.9 20,0 z"
         id="path50"
         inkscape:connector-curvature="0" /></g></g><g
     id="g60"
     transform="translate(-110.68889,-139.70376)"><g
       id="g58"><path
         d="m 798,786 c 0,-29.2 0,-58.4 0,-87.6 0,-4.1 0,-8.3 0,-12.4 0,-12.9 -20,-12.9 -20,0 0,29.2 0,58.4 0,87.6 0,4.1 0,8.3 0,12.4 0,12.9 20,12.9 20,0 z"
         id="path56"
         inkscape:connector-curvature="0" /></g></g></svg>