<?xml version="1.0" encoding="UTF-8" standalone="no"?>
<svg
   xmlns:dc="http://purl.org/dc/elements/1.1/"
   xmlns:cc="http://creativecommons.org/ns#"
   xmlns:rdf="http://www.w3.org/1999/02/22-rdf-syntax-ns#"
   xmlns:svg="http://www.w3.org/2000/svg"
   xmlns="http://www.w3.org/2000/svg"
   xmlns:sodipodi="http://sodipodi.sourceforge.net/DTD/sodipodi-0.dtd"
   xmlns:inkscape="http://www.inkscape.org/namespaces/inkscape"
   data-name="Layer 1"
   viewBox="0 0 98.980003 97.72187"
   x="0px"
   y="0px"
   version="1.1"
   id="svg54"
   sodipodi:docname="teacher.svg"
   width="98.980003"
   height="97.72187"
   inkscape:version="0.92.3 (2405546, 2018-03-11)">
  <metadata
     id="metadata60">
    <rdf:RDF>
      <cc:Work
         rdf:about="">
        <dc:format>image/svg+xml</dc:format>
        <dc:type
           rdf:resource="http://purl.org/dc/dcmitype/StillImage" />
      </cc:Work>
    </rdf:RDF>
  </metadata>
  <defs
     id="defs58" />
  <sodipodi:namedview
     pagecolor="#ffffff"
     bordercolor="#666666"
     borderopacity="1"
     objecttolerance="10"
     gridtolerance="10"
     guidetolerance="10"
     inkscape:pageopacity="0"
     inkscape:pageshadow="2"
     inkscape:window-width="258"
     inkscape:window-height="1035"
     id="namedview56"
     showgrid="false"
     fit-margin-top="0"
     fit-margin-left="0"
     fit-margin-right="0"
     fit-margin-bottom="0"
     inkscape:zoom="1.888"
     inkscape:cx="49.5"
     inkscape:cy="36.369995"
     inkscape:window-x="1650"
     inkscape:window-y="8"
     inkscape:window-maximized="0"
     inkscape:current-layer="svg54" />
  <title
     id="title46">Artboard 9</title>
  <path
     d="m 84.89,21.391868 h -1.81 a 12.06,12.06 0 0 0 -9.89,-21.1799997 11.81,11.81 0 0 0 -9.66,9.9999997 12,12 0 0 0 4.28,11.2 h -0.4 a 13.77,13.77 0 0 0 -11.91,6.86 l -2.73,4.73 -6.85,-4.15 a 7.39,7.39 0 0 0 -10,2.46 7.35,7.35 0 0 0 2.46,10.17 l 12.29,7.5 a 8.5,8.5 0 0 0 10.83,-1.86 v 12.21 a 2.5,2.5 0 0 0 5,0 v -19.43 a 2.5,2.5 0 0 0 -4.47,-1.54 l -4.29,5.49 a 3.48,3.48 0 0 1 -4.5,0.85 l -12.28,-7.55 a 2.3556156,2.3556156 0 0 1 2.39,-4.06 l 9,5.5 a 2.5,2.5 0 0 0 3.47,-0.89 l 4,-6.94 a 8.75,8.75 0 0 1 7.56,-4.37 h 1.66 a 4.59,4.59 0 0 0 2.5,-8.44 7,7 0 0 1 -3.1,-7 6.88,6.88 0 0 1 5.62,-5.8099997 7.06,7.06 0 0 1 5.22,12.8299997 4.59,4.59 0 0 0 2.52,8.43 h 3.07 a 9.12,9.12 0 0 1 9.11,9.11 v 19.2 a 2.3,2.3 0 1 1 -4.6,0 v -15 a 2.5,2.5 0 0 0 -5,0 v 15 a 7.3,7.3 0 1 0 14.6,0 v -19.21 a 14.12,14.12 0 0 0 -14.09,-14.11 z"
     id="path48"
     inkscape:connector-curvature="0" />
  <path
     d="m 2.5,97.691868 a 2.5,2.5 0 0 0 2.5,-2.5 v -2.78 a 6.36,6.36 0 0 1 6.35,-6.35 4.66,4.66 0 0 0 2.57,-8.54 6.4,6.4 0 0 1 -2.83,-5.29 6.53,6.53 0 0 1 6.21,-6.38 6.4,6.4 0 0 1 3.77,11.71 4.66,4.66 0 0 0 2.58,8.53 6.36,6.36 0 0 1 6.35,6.35 v 2.78 a 2.5,2.5 0 0 0 5,0 v -2.81 a 6.36,6.36 0 0 1 6.35,-6.35 4.66,4.66 0 0 0 2.57,-8.54 6.39,6.39 0 0 1 -2.82,-5.29 6.53,6.53 0 0 1 6.21,-6.38 6.4,6.4 0 0 1 3.77,11.71 4.66,4.66 0 0 0 2.58,8.53 6.36,6.36 0 0 1 6.35,6.35 v 2.78 a 2.5,2.5 0 0 0 5,0 v -2.81 a 6.36,6.36 0 0 1 6.35,-6.35 4.66,4.66 0 0 0 2.57,-8.54 6.39,6.39 0 0 1 -2.83,-5.29 6.53,6.53 0 0 1 6.21,-6.38 6.4,6.4 0 0 1 3.77,11.71 4.66,4.66 0 0 0 2.58,8.53 6.36,6.36 0 0 1 6.35,6.35 v 2.78 a 2.5,2.5 0 1 0 5,0 v -2.81 a 11.37,11.37 0 0 0 -10.36,-11.31 11.41,11.41 0 1 0 -14.28,0 11.34,11.34 0 0 0 -7.87,4.22 11.34,11.34 0 0 0 -7.86,-4.22 11.4,11.4 0 1 0 -14.28,0 11.34,11.34 0 0 0 -7.86,4.22 11.34,11.34 0 0 0 -7.86,-4.22 11.4,11.4 0 1 0 -14.28,0 11.37,11.37 0 0 0 -10.36,11.31 v 2.78 a 2.5,2.5 0 0 0 2.5,2.5 z"
     id="path50"
     inkscape:connector-curvature="0" />
  <path
     d="m 8.15,5.0118683 h 51 a 2.5,2.5 0 0 0 0,-5 h -51 a 8.16,8.16 0 0 0 -8.15,8.14 V 47.481868 a 8.16,8.16 0 0 0 8.15,8.15 h 36.13 a 2.5,2.5 0 0 0 0,-5 H 8.15 A 3.15,3.15 0 0 1 5,47.481868 V 8.1518683 a 3.15,3.15 0 0 1 3.15,-3.14 z"
     id="path52"
     inkscape:connector-curvature="0" />
</svg>
