<?xml version="1.0" encoding="UTF-8" standalone="no"?>
<svg
   xmlns:dc="http://purl.org/dc/elements/1.1/"
   xmlns:cc="http://creativecommons.org/ns#"
   xmlns:rdf="http://www.w3.org/1999/02/22-rdf-syntax-ns#"
   xmlns:svg="http://www.w3.org/2000/svg"
   xmlns="http://www.w3.org/2000/svg"
   xmlns:sodipodi="http://sodipodi.sourceforge.net/DTD/sodipodi-0.dtd"
   xmlns:inkscape="http://www.inkscape.org/namespaces/inkscape"
   version="1.1"
   x="0px"
   y="0px"
   viewBox="0 0 92.796005 82.647003"
   enable-background="new 0 0 100 100"
   xml:space="preserve"
   id="svg6"
   sodipodi:docname="work.svg"
   width="92.796005"
   height="82.647003"
   inkscape:version="0.92.3 (2405546, 2018-03-11)"><metadata
     id="metadata12"><rdf:RDF><cc:Work
         rdf:about=""><dc:format>image/svg+xml</dc:format><dc:type
           rdf:resource="http://purl.org/dc/dcmitype/StillImage" /><dc:title></dc:title></cc:Work></rdf:RDF></metadata><defs
     id="defs10" /><sodipodi:namedview
     pagecolor="#ffffff"
     bordercolor="#666666"
     borderopacity="1"
     objecttolerance="10"
     gridtolerance="10"
     guidetolerance="10"
     inkscape:pageopacity="0"
     inkscape:pageshadow="2"
     inkscape:window-width="944"
     inkscape:window-height="340"
     id="namedview8"
     showgrid="false"
     fit-margin-top="0"
     fit-margin-left="0"
     fit-margin-right="0"
     fit-margin-bottom="0"
     inkscape:zoom="1.888"
     inkscape:cx="46.399002"
     inkscape:cy="28.824"
     inkscape:window-x="964"
     inkscape:window-y="356"
     inkscape:window-maximized="0"
     inkscape:current-layer="svg6" /><g
     id="g4"
     transform="translate(-3.6009983,-8.677)"><path
       d="m 96.349,27.217 c 0,-2.744 -2.232,-4.976 -4.976,-4.976 H 65.445 v -6.692 c 0,-3.789 -3.083,-6.872 -6.872,-6.872 H 41.427 c -3.789,0 -6.872,3.083 -6.872,6.872 v 6.692 H 8.629 c -2.745,0 -4.978,2.231 -4.978,4.971 l -0.05,23.67 c -10e-4,0.768 0.437,1.469 1.127,1.804 1.056,0.512 2.143,0.985 3.235,1.454 v 32.208 c 0,2.743 2.232,4.976 4.976,4.976 h 74.12 c 2.744,0 4.976,-2.232 4.976,-4.976 v -32.69 c 1.119,-0.517 2.221,-1.052 3.295,-1.618 0.658,-0.347 1.069,-1.03 1.067,-1.773 z M 38.555,15.549 c 0,-1.584 1.289,-2.872 2.872,-2.872 h 17.146 c 1.557,0 2.872,1.315 2.872,2.872 v 6.692 h -22.89 z m 49.481,70.799 c 0,0.52 -0.456,0.976 -0.976,0.976 H 12.94 c -0.529,0 -0.976,-0.447 -0.976,-0.976 V 55.727 c 8.706,3.197 18.433,5.115 29.04,5.703 v 2.775 c 0,2.012 1.637,3.649 3.649,3.649 h 10.695 c 2.011,0 3.647,-1.638 3.647,-3.649 V 61.4 C 69.74,60.747 79.469,58.721 88.035,55.361 V 86.348 Z M 45.004,63.854 v -6.636 h 9.992 v 6.636 z M 58.996,57.378 V 56.87 c 0,-2.014 -1.636,-3.651 -3.647,-3.651 H 44.653 c -2.012,0 -3.649,1.638 -3.649,3.651 v 0.551 C 28.476,56.703 17.245,54.092 7.605,49.622 L 7.652,27.217 c 0,-0.529 0.448,-0.976 0.978,-0.976 h 82.744 c 0.529,0 0.976,0.446 0.976,0.979 l 0.046,21.831 c -9.409,4.74 -20.642,7.525 -33.4,8.327 z"
       id="path2"
       inkscape:connector-curvature="0" /></g></svg>