<?xml version="1.0" encoding="UTF-8" standalone="no"?>
<svg
   xmlns:dc="http://purl.org/dc/elements/1.1/"
   xmlns:cc="http://creativecommons.org/ns#"
   xmlns:rdf="http://www.w3.org/1999/02/22-rdf-syntax-ns#"
   xmlns:svg="http://www.w3.org/2000/svg"
   xmlns="http://www.w3.org/2000/svg"
   xmlns:sodipodi="http://sodipodi.sourceforge.net/DTD/sodipodi-0.dtd"
   xmlns:inkscape="http://www.inkscape.org/namespaces/inkscape"
   version="1.1"
   x="0px"
   y="0px"
   viewBox="0 0 98.002007 78.72802"
   enable-background="new 0 0 100 100"
   xml:space="preserve"
   id="svg4"
   sodipodi:docname="culture.svg"
   width="98.002007"
   height="78.72802"
   inkscape:version="0.92.3 (2405546, 2018-03-11)"><metadata
     id="metadata10"><rdf:RDF><cc:Work
         rdf:about=""><dc:format>image/svg+xml</dc:format><dc:type
           rdf:resource="http://purl.org/dc/dcmitype/StillImage" /><dc:title></dc:title></cc:Work></rdf:RDF></metadata><defs
     id="defs8" /><sodipodi:namedview
     pagecolor="#ffffff"
     bordercolor="#666666"
     borderopacity="1"
     objecttolerance="10"
     gridtolerance="10"
     guidetolerance="10"
     inkscape:pageopacity="0"
     inkscape:pageshadow="2"
     inkscape:window-width="624"
     inkscape:window-height="1035"
     id="namedview6"
     showgrid="false"
     fit-margin-top="0"
     fit-margin-left="0"
     fit-margin-right="0"
     fit-margin-bottom="0"
     inkscape:zoom="1.888"
     inkscape:cx="49.005"
     inkscape:cy="26.863"
     inkscape:window-x="1284"
     inkscape:window-y="8"
     inkscape:window-maximized="0"
     inkscape:current-layer="svg4" /><path
     d="m 93.508,28.328023 h -5.071 v -2.896 c 0,-2.417 -1.961,-4.377 -4.378,-4.377 h -3.088 v -2.455 c 0,-0.792 -0.643,-1.437 -1.436,-1.437 v 0 c -0.793,0 -1.438,0.645 -1.438,1.437 v 2.455 H 70.058 V 6.9900227 c 0,-2.177 1.689,-4.032 3.864,-4.115 2.287,-0.086 4.175,1.749 4.175,4.018 v 3.3530003 c 0,0.793 0.645,1.437 1.438,1.437 v 0 c 0.793,0 1.436,-0.644 1.436,-1.437 V 7.0220227 c 0,-3.763 -2.963,-6.92899999 -6.725,-7.01799999 -3.875,-0.093 -7.058,3.03299999 -7.058,6.88899999 V 18.049023 c -1.134,-0.816 -2.521,-1.299 -4.021,-1.299 -2.22,0 -4.194,1.055 -5.455,2.688 -1.261,-1.634 -3.235,-2.688 -5.455,-2.688 -1.499,0 -2.887,0.481 -4.02,1.299 V 7.0210227 c 0,-3.763 -2.964,-6.92899999 -6.726,-7.01899999 -3.875,-0.093 -7.057,3.03299999 -7.057,6.88899999 V 21.055023 h -7.128 c -0.673,-1.358 -2.07,-2.297 -3.688,-2.297 -1.22,0 -2.313,0.536 -3.067,1.382 -2.239,-1.869 -5.073,-2.913 -8.034,-2.913 -6.913,0 -12.537,5.624 -12.537,12.537 0,6.913 5.624,12.538 12.537,12.538 2.949,0 5.791,-1.049 8.031,-2.917 0.754,0.848 1.85,1.385 3.069,1.385 1.616,0 3.013,-0.938 3.688,-2.297 h 7.414 c 1.75,11.103 11.384,19.62 22.971,19.62 4.324,0 8.515,-1.194 12.144,-3.42 0.786,-0.481 0.916,-1.574 0.266,-2.228 v 0 c -0.465,-0.464 -1.188,-0.554 -1.747,-0.21 -3.065,1.873 -6.663,2.956 -10.507,2.984 -11.297,0.082 -20.538,-9.326 -20.538,-20.623 v -9.716 h 19.233 c 2.176,0 4.031,1.688 4.113,3.864 0.087,2.287 -1.749,4.175 -4.018,4.175 H 43.024 c -0.67,0 -1.281,0.438 -1.44,1.087 -0.198,0.808 0.315,1.592 1.103,1.755 0.024,0.005 2.436,0.517 4.779,1.943 2.916,1.775 4.4,4.116 4.41,6.957 0.003,0.769 0.607,1.433 1.374,1.464 0.821,0.034 1.497,-0.621 1.497,-1.436 0,-1.771 -0.421,-3.416 -1.239,-4.899 1.702,-0.313 3.188,-1.253 4.206,-2.572 1.262,1.633 3.236,2.688 5.455,2.688 1.581,0 3.039,-0.536 4.203,-1.437 h 10.403 c -0.563,3.167 -1.847,6.06 -3.664,8.516 -0.414,0.562 -0.354,1.339 0.14,1.83 0.007,0.007 0.015,0.015 0.021,0.021 0.613,0.612 1.623,0.526 2.141,-0.169 2.221,-2.995 3.691,-6.487 4.275,-10.197 h 3.371 c 2.418,0 4.377,-1.959 4.377,-4.377 v -2.896 h 5.072 c 0.898,0 1.627,0.729 1.627,1.627 v 22.841 c 0,2.483 -2.014,4.498 -4.498,4.498 H 66.461 c -4.022,0 -7.41,3.169 -7.506,7.19 -0.099,4.146 3.243,7.547 7.366,7.547 h 1.064 c 0.627,2.207 2.659,3.828 5.063,3.828 h 7.272 c 0.793,0 1.437,-0.644 1.437,-1.437 v -2.394 h 2.142 c 0.786,0 1.472,-0.604 1.495,-1.391 0.023,-0.813 -0.627,-1.479 -1.436,-1.479 h -2.201 v -2.392 c 0,-0.793 -0.644,-1.437 -1.437,-1.437 h -7.272 c -2.403,0 -4.438,1.622 -5.063,3.827 h -0.964 c -2.518,0 -4.643,-2.059 -4.602,-4.574 0.043,-2.443 2.043,-4.421 4.498,-4.421 H 90.63 c 4.031,0 7.315,-3.255 7.366,-7.272 h 0.006 v -22.931 c 0.004,-2.485 -2.01,-4.499 -4.494,-4.499 z m -73.979,8.111 c -1.82,1.902 -4.349,2.99 -6.986,2.99 -5.33,0 -9.666,-4.336 -9.666,-9.666 0,-5.33 4.336,-9.666 9.666,-9.666 2.646,0 5.166,1.083 6.986,2.985 z m 5.36,0.215 c 0,0.688 -0.558,1.244 -1.244,1.244 -0.686,0 -1.244,-0.559 -1.244,-1.244 v -13.781 c 0,-0.686 0.559,-1.244 1.244,-1.244 0.687,0 1.244,0.56 1.244,1.244 z m 9.57,-1.053 H 27.76 v -11.675 h 6.699 z m 10.91,-13.59 H 37.33 V 6.8900227 c 0,-2.217 1.803,-4.021 4.02,-4.021 2.217,0 4.021,1.804 4.021,4.021 z m 3.219,0 c 0.626,-1.407 2.036,-2.394 3.672,-2.394 1.638,0 3.046,0.985 3.672,2.394 z m 3.672,15.026 c -0.376,0 -0.745,-0.054 -1.104,-0.155 -0.422,-0.38 -0.875,-0.745 -1.368,-1.089 h 5.373 c -0.733,0.764 -1.76,1.244 -2.901,1.244 z m 14.931,-4.02 c 0,2.217 -1.805,4.02 -4.021,4.02 -1.465,0 -2.745,-0.79 -3.447,-1.963 2.269,-1.13 3.83,-3.471 3.83,-6.172 0,-2.862 -1.756,-5.322 -4.246,-6.362 0.479,-1.683 2.028,-2.921 3.863,-2.921 2.216,0 4.021,1.804 4.021,4.021 z m 18.375,1.078 c 0,0.831 -0.676,1.506 -1.507,1.506 H 69.556 c 0.324,-0.799 0.506,-1.67 0.506,-2.584 v -9.092 h 13.997 c 0.831,0 1.507,0.676 1.507,1.506 z m -13.113,36.975 h 5.838 v 4.785 h -5.838 c -1.319,0 -2.394,-1.073 -2.394,-2.393 0.003,-1.32 1.075,-2.392 2.394,-2.392 z"
     id="path2"
     inkscape:connector-curvature="0" /></svg>