<?xml version="1.0" encoding="UTF-8" standalone="no"?>
<svg
   xmlns:dc="http://purl.org/dc/elements/1.1/"
   xmlns:cc="http://creativecommons.org/ns#"
   xmlns:rdf="http://www.w3.org/1999/02/22-rdf-syntax-ns#"
   xmlns:svg="http://www.w3.org/2000/svg"
   xmlns="http://www.w3.org/2000/svg"
   xmlns:sodipodi="http://sodipodi.sourceforge.net/DTD/sodipodi-0.dtd"
   xmlns:inkscape="http://www.inkscape.org/namespaces/inkscape"
   version="1.1"
   x="0px"
   y="0px"
   viewBox="0 0 82.544281 81.283997"
   enable-background="new 0 0 100 100"
   xml:space="preserve"
   id="svg24"
   sodipodi:docname="death.svg"
   width="82.544281"
   height="81.283997"
   inkscape:version="0.92.3 (2405546, 2018-03-11)"><metadata
     id="metadata30"><rdf:RDF><cc:Work
         rdf:about=""><dc:format>image/svg+xml</dc:format><dc:type
           rdf:resource="http://purl.org/dc/dcmitype/StillImage" /><dc:title></dc:title></cc:Work></rdf:RDF></metadata><defs
     id="defs28" /><sodipodi:namedview
     pagecolor="#ffffff"
     bordercolor="#666666"
     borderopacity="1"
     objecttolerance="10"
     gridtolerance="10"
     guidetolerance="10"
     inkscape:pageopacity="0"
     inkscape:pageshadow="2"
     inkscape:window-width="464"
     inkscape:window-height="1035"
     id="namedview26"
     showgrid="false"
     fit-margin-top="0"
     fit-margin-left="0"
     fit-margin-right="0"
     fit-margin-bottom="0"
     inkscape:zoom="1.888"
     inkscape:cx="41.617394"
     inkscape:cy="29.014"
     inkscape:window-x="1444"
     inkscape:window-y="8"
     inkscape:window-maximized="0"
     inkscape:current-layer="svg24" /><g
     id="g22"
     transform="translate(-8.3826061,-10.23)"><path
       d="m 86.522,73.852 c -0.872,-0.36 -1.788,-0.544 -2.726,-0.544 -2.477,0 -4.727,1.265 -6.021,3.306 l -15.833,-6.559 18.544,-7.68 c 1.512,1.833 4.224,2.571 6.525,1.618 2.88,-1.195 4.251,-4.512 3.06,-7.387 -0.085,-0.206 -0.182,-0.405 -0.291,-0.599 1.253,-1.93 1.517,-4.377 0.605,-6.578 -1.109,-2.676 -3.695,-4.405 -6.592,-4.405 -0.938,0 -1.854,0.183 -2.726,0.544 -3.242,1.345 -4.97,4.822 -4.231,8.138 l -11.878,4.92 V 57.44 C 71.491,52.69 75.761,45.011 75.761,36.335 75.761,21.94 64.05,10.23 49.656,10.23 35.261,10.23 23.55,21.94 23.55,36.335 c 0,8.676 4.271,16.355 10.803,21.105 v 1.188 L 22.476,53.709 c 0.739,-3.316 -0.99,-6.795 -4.233,-8.14 -0.871,-0.361 -1.789,-0.544 -2.727,-0.544 -2.896,0 -5.483,1.729 -6.59,4.404 -0.914,2.201 -0.65,4.649 0.604,6.579 -0.108,0.191 -0.204,0.391 -0.289,0.596 -1.193,2.878 0.178,6.194 3.062,7.392 2.291,0.948 5.019,0.206 6.525,-1.619 l 18.539,7.679 -15.833,6.559 c -1.292,-2.041 -3.543,-3.306 -6.021,-3.306 -0.937,0 -1.854,0.184 -2.726,0.544 -3.633,1.504 -5.364,5.684 -3.86,9.317 0.906,2.188 2.815,3.739 5.078,4.222 0.06,0.214 0.133,0.423 0.218,0.629 0.878,2.122 2.93,3.493 5.227,3.493 0.744,0 1.472,-0.146 2.165,-0.433 2.348,-0.975 3.694,-3.356 3.467,-5.759 l 24.57,-10.177 24.573,10.179 c -0.225,2.404 1.121,4.782 3.468,5.757 0.691,0.287 1.419,0.433 2.164,0.433 2.296,0 4.348,-1.371 5.225,-3.49 0.087,-0.206 0.159,-0.417 0.22,-0.632 2.262,-0.482 4.172,-2.033 5.078,-4.222 1.507,-3.635 -0.226,-7.815 -3.858,-9.318 z M 38.552,63.766 c 0.764,0.343 1.605,0.638 2.503,0.89 v 1.823 C 39.532,65.938 38.687,65.36 38.552,65.04 Z m 9.005,3.907 c -0.823,-0.049 -1.591,-0.125 -2.303,-0.224 v -1.977 c 0.759,0.09 1.529,0.155 2.303,0.199 z m 4.199,-2.001 c 0.774,-0.044 1.544,-0.109 2.303,-0.199 v 1.978 c -0.711,0.098 -1.48,0.174 -2.303,0.223 z m 9.023,-0.663 c -0.154,0.349 -1.008,0.932 -2.521,1.47 v -1.823 c 0.896,-0.25 1.732,-0.546 2.495,-0.888 0.006,0.634 0.013,1.118 0.026,1.241 z m 19.587,-8.218 c 0.572,-0.237 1.011,-0.718 1.198,-1.31 0.187,-0.593 0.1,-1.236 -0.233,-1.761 -0.091,-0.139 -0.178,-0.284 -0.243,-0.439 -0.618,-1.494 0.096,-3.214 1.588,-3.833 1.474,-0.614 3.227,0.131 3.83,1.59 0.484,1.169 0.15,2.511 -0.829,3.342 -0.48,0.407 -0.754,1.009 -0.742,1.638 0.011,0.63 0.303,1.221 0.797,1.611 0.216,0.17 0.369,0.365 0.459,0.583 0.308,0.742 -0.048,1.596 -0.787,1.903 -0.737,0.305 -1.613,-0.084 -1.88,-0.736 L 83.469,59.161 C 83.313,58.578 82.911,58.09 82.37,57.823 81.828,57.557 81.197,57.536 80.64,57.767 L 64.949,64.265 C 64.948,63.97 64.948,63.591 64.948,63.177 Z M 27.75,36.335 c 0,-12.08 9.827,-21.906 21.907,-21.906 12.08,0 21.906,9.827 21.906,21.906 0,6.126 -2.535,11.668 -6.604,15.647 v -0.346 c 0,-1.159 -0.938,-2.1 -2.1,-2.1 -1.144,0 -2.067,0.916 -2.095,2.052 0,0.017 -0.005,0.031 -0.005,0.048 l 0.013,7.116 c -0.312,0.793 -4.077,2.784 -11.116,2.784 -7.038,0 -10.804,-1.991 -11.104,-2.701 v -7.75 -0.048 c 0,-1.159 -0.94,-2.1 -2.1,-2.1 -1.16,0 -2.1,0.94 -2.1,2.1 v 0.944 C 30.286,48.003 27.75,42.462 27.75,36.335 Z m -9.077,21.433 c -0.257,-0.107 -0.531,-0.16 -0.804,-0.16 -0.318,0 -0.636,0.072 -0.927,0.216 -0.542,0.267 -0.943,0.755 -1.1,1.338 l -0.03,0.164 c -0.3,0.725 -1.178,1.088 -1.9,0.792 -0.745,-0.311 -1.099,-1.163 -0.79,-1.908 0.088,-0.215 0.242,-0.409 0.457,-0.578 0.495,-0.392 0.788,-0.983 0.799,-1.612 0.011,-0.63 -0.262,-1.231 -0.742,-1.639 -0.981,-0.831 -1.316,-2.173 -0.831,-3.342 0.604,-1.458 2.354,-2.205 3.83,-1.59 1.494,0.619 2.207,2.339 1.59,3.83 -0.066,0.158 -0.155,0.304 -0.244,0.442 -0.335,0.524 -0.42,1.168 -0.234,1.761 0.187,0.592 0.626,1.072 1.199,1.31 l 15.406,6.381 v 1.09 z m 3.043,24.404 c -0.555,0.229 -0.985,0.687 -1.181,1.254 -0.196,0.568 -0.139,1.193 0.155,1.717 l 0.107,0.155 c 0.307,0.741 -0.047,1.596 -0.788,1.903 -0.74,0.305 -1.605,-0.065 -1.906,-0.792 -0.09,-0.216 -0.118,-0.453 -0.085,-0.726 0.075,-0.626 -0.134,-1.252 -0.572,-1.706 -0.398,-0.412 -0.945,-0.644 -1.513,-0.644 -0.057,0 -0.114,0.003 -0.171,0.007 -1.29,0.099 -2.474,-0.618 -2.955,-1.778 -0.619,-1.494 0.094,-3.212 1.587,-3.831 1.476,-0.614 3.227,0.13 3.833,1.594 0.067,0.159 0.106,0.326 0.144,0.489 0.137,0.603 0.534,1.115 1.083,1.399 0.55,0.284 1.196,0.312 1.768,0.074 l 21.632,-8.961 1.314,0.546 z m 64.787,-0.61 c -0.479,1.16 -1.676,1.88 -2.953,1.778 -0.631,-0.042 -1.247,0.184 -1.685,0.637 -0.438,0.454 -0.646,1.08 -0.572,1.706 0.032,0.272 0.005,0.51 -0.085,0.729 -0.3,0.724 -1.173,1.094 -1.903,0.789 -0.743,-0.308 -1.099,-1.162 -0.812,-1.847 l 0.129,-0.212 c 0.294,-0.523 0.35,-1.148 0.154,-1.717 -0.195,-0.567 -0.626,-1.024 -1.182,-1.254 L 52.583,71.812 c 0.715,-0.057 1.412,-0.129 2.089,-0.225 l 23.417,9.7 c 0.574,0.237 1.219,0.21 1.769,-0.074 0.55,-0.284 0.946,-0.797 1.083,-1.399 0.038,-0.166 0.077,-0.335 0.145,-0.495 0.603,-1.456 2.353,-2.202 3.83,-1.588 1.493,0.62 2.205,2.337 1.587,3.831 z"
       id="path12"
       inkscape:connector-curvature="0" /><path
       d="m 43.598,45.723 c 4.235,0 5.083,-1.136 5.083,-5.727 0,-4.592 -0.848,-8.314 -5.083,-8.314 -4.235,0 -7.668,3.722 -7.668,8.314 -10e-4,4.591 3.432,5.727 7.668,5.727 z"
       id="path14"
       inkscape:connector-curvature="0" /><path
       d="m 55.715,45.723 c 4.234,0 7.668,-1.136 7.668,-5.727 0,-4.592 -3.434,-8.314 -7.668,-8.314 -4.234,0 -5.082,3.722 -5.082,8.314 0,4.591 0.847,5.727 5.082,5.727 z"
       id="path16"
       inkscape:connector-curvature="0" /><path
       d="m 46.769,48.638 c -1.062,0 -2.014,1.159 -2.682,2.572 -0.601,1.274 -0.971,2.756 -0.971,3.792 0,2.188 1.636,2.729 3.653,2.729 2.018,0 2.422,-0.541 2.422,-2.729 0,-1.008 -0.088,-2.435 -0.378,-3.684 -0.339,-1.463 -0.955,-2.68 -2.044,-2.68 z"
       id="path18"
       inkscape:connector-curvature="0" /><path
       d="m 52.544,57.73 c 2.018,0 3.653,-0.541 3.653,-2.729 0,-0.968 -0.321,-2.324 -0.852,-3.535 -0.671,-1.529 -1.677,-2.829 -2.802,-2.829 -1.099,0 -1.716,1.238 -2.053,2.719 -0.283,1.239 -0.369,2.647 -0.369,3.646 10e-4,2.187 0.404,2.728 2.423,2.728 z"
       id="path20"
       inkscape:connector-curvature="0" /></g></svg>