<svg xmlns="http://www.w3.org/2000/svg" xmlns:xlink="http://www.w3.org/1999/xlink" version="1.1" x="0px" y="0px" viewBox="0 0 100 125" enable-background="new 0 0 100 100" xml:space="preserve"><g><path d="M86.522,73.852c-0.872-0.36-1.788-0.544-2.726-0.544c-2.477,0-4.727,1.265-6.021,3.306l-15.833-6.559l18.544-7.68   c1.512,1.833,4.224,2.571,6.525,1.618c2.88-1.195,4.251-4.512,3.06-7.387c-0.085-0.206-0.182-0.405-0.291-0.599   c1.253-1.93,1.517-4.377,0.605-6.578c-1.109-2.676-3.695-4.405-6.592-4.405c-0.938,0-1.854,0.183-2.726,0.544   c-3.242,1.345-4.97,4.822-4.231,8.138l-11.878,4.92V57.44c6.533-4.75,10.803-12.429,10.803-21.105   c0-14.395-11.711-26.105-26.105-26.105c-14.395,0-26.106,11.71-26.106,26.105c0,8.676,4.271,16.355,10.803,21.105v1.188   l-11.877-4.919c0.739-3.316-0.99-6.795-4.233-8.14c-0.871-0.361-1.789-0.544-2.727-0.544c-2.896,0-5.483,1.729-6.59,4.404   c-0.914,2.201-0.65,4.649,0.604,6.579c-0.108,0.191-0.204,0.391-0.289,0.596c-1.193,2.878,0.178,6.194,3.062,7.392   c2.291,0.948,5.019,0.206,6.525-1.619l18.539,7.679l-15.833,6.559c-1.292-2.041-3.543-3.306-6.021-3.306   c-0.937,0-1.854,0.184-2.726,0.544c-3.633,1.504-5.364,5.684-3.86,9.317c0.906,2.188,2.815,3.739,5.078,4.222   c0.06,0.214,0.133,0.423,0.218,0.629c0.878,2.122,2.93,3.493,5.227,3.493c0.744,0,1.472-0.146,2.165-0.433   c2.348-0.975,3.694-3.356,3.467-5.759l24.57-10.177l24.573,10.179c-0.225,2.404,1.121,4.782,3.468,5.757   c0.691,0.287,1.419,0.433,2.164,0.433c2.296,0,4.348-1.371,5.225-3.49c0.087-0.206,0.159-0.417,0.22-0.632   c2.262-0.482,4.172-2.033,5.078-4.222C91.887,79.535,90.154,75.355,86.522,73.852z M38.552,63.766   c0.764,0.343,1.605,0.638,2.503,0.89v1.823c-1.523-0.541-2.368-1.119-2.503-1.439V63.766z M47.557,67.673   c-0.823-0.049-1.591-0.125-2.303-0.224v-1.977c0.759,0.09,1.529,0.155,2.303,0.199V67.673z M51.756,65.672   c0.774-0.044,1.544-0.109,2.303-0.199v1.978c-0.711,0.098-1.48,0.174-2.303,0.223V65.672z M60.779,65.009   c-0.154,0.349-1.008,0.932-2.521,1.47v-1.823c0.896-0.25,1.732-0.546,2.495-0.888C60.759,64.402,60.766,64.886,60.779,65.009z    M80.366,56.791c0.572-0.237,1.011-0.718,1.198-1.31c0.187-0.593,0.1-1.236-0.233-1.761c-0.091-0.139-0.178-0.284-0.243-0.439   c-0.618-1.494,0.096-3.214,1.588-3.833c1.474-0.614,3.227,0.131,3.83,1.59c0.484,1.169,0.15,2.511-0.829,3.342   c-0.48,0.407-0.754,1.009-0.742,1.638c0.011,0.63,0.303,1.221,0.797,1.611c0.216,0.17,0.369,0.365,0.459,0.583   c0.308,0.742-0.048,1.596-0.787,1.903c-0.737,0.305-1.613-0.084-1.88-0.736l-0.055-0.218c-0.156-0.583-0.558-1.071-1.099-1.338   c-0.542-0.266-1.173-0.287-1.73-0.056l-15.691,6.498c-0.001-0.295-0.001-0.674-0.001-1.088L80.366,56.791z M27.75,36.335   c0-12.08,9.827-21.906,21.907-21.906s21.906,9.827,21.906,21.906c0,6.126-2.535,11.668-6.604,15.647v-0.346   c0-1.159-0.938-2.1-2.1-2.1c-1.144,0-2.067,0.916-2.095,2.052c0,0.017-0.005,0.031-0.005,0.048l0.013,7.116   c-0.312,0.793-4.077,2.784-11.116,2.784c-7.038,0-10.804-1.991-11.104-2.701v-7.75v-0.048c0-1.159-0.94-2.1-2.1-2.1   s-2.1,0.94-2.1,2.1v0.944C30.286,48.003,27.75,42.462,27.75,36.335z M18.673,57.768c-0.257-0.107-0.531-0.16-0.804-0.16   c-0.318,0-0.636,0.072-0.927,0.216c-0.542,0.267-0.943,0.755-1.1,1.338l-0.03,0.164c-0.3,0.725-1.178,1.088-1.9,0.792   c-0.745-0.311-1.099-1.163-0.79-1.908c0.088-0.215,0.242-0.409,0.457-0.578c0.495-0.392,0.788-0.983,0.799-1.612   c0.011-0.63-0.262-1.231-0.742-1.639c-0.981-0.831-1.316-2.173-0.831-3.342c0.604-1.458,2.354-2.205,3.83-1.59   c1.494,0.619,2.207,2.339,1.59,3.83c-0.066,0.158-0.155,0.304-0.244,0.442c-0.335,0.524-0.42,1.168-0.234,1.761   c0.187,0.592,0.626,1.072,1.199,1.31l15.406,6.381v1.09L18.673,57.768z M21.716,82.172c-0.555,0.229-0.985,0.687-1.181,1.254   c-0.196,0.568-0.139,1.193,0.155,1.717l0.107,0.155c0.307,0.741-0.047,1.596-0.788,1.903c-0.74,0.305-1.605-0.065-1.906-0.792   c-0.09-0.216-0.118-0.453-0.085-0.726c0.075-0.626-0.134-1.252-0.572-1.706c-0.398-0.412-0.945-0.644-1.513-0.644   c-0.057,0-0.114,0.003-0.171,0.007c-1.29,0.099-2.474-0.618-2.955-1.778c-0.619-1.494,0.094-3.212,1.587-3.831   c1.476-0.614,3.227,0.13,3.833,1.594c0.067,0.159,0.106,0.326,0.144,0.489c0.137,0.603,0.534,1.115,1.083,1.399   c0.55,0.284,1.196,0.312,1.768,0.074l21.632-8.961l1.314,0.546L21.716,82.172z M86.503,81.562c-0.479,1.16-1.676,1.88-2.953,1.778   c-0.631-0.042-1.247,0.184-1.685,0.637c-0.438,0.454-0.646,1.08-0.572,1.706c0.032,0.272,0.005,0.51-0.085,0.729   c-0.3,0.724-1.173,1.094-1.903,0.789c-0.743-0.308-1.099-1.162-0.812-1.847l0.129-0.212c0.294-0.523,0.35-1.148,0.154-1.717   c-0.195-0.567-0.626-1.024-1.182-1.254L52.583,71.812c0.715-0.057,1.412-0.129,2.089-0.225l23.417,9.7   c0.574,0.237,1.219,0.21,1.769-0.074s0.946-0.797,1.083-1.399c0.038-0.166,0.077-0.335,0.145-0.495   c0.603-1.456,2.353-2.202,3.83-1.588C86.409,78.351,87.121,80.068,86.503,81.562z"/><path d="M43.598,45.723c4.235,0,5.083-1.136,5.083-5.727c0-4.592-0.848-8.314-5.083-8.314c-4.235,0-7.668,3.722-7.668,8.314   C35.929,44.587,39.362,45.723,43.598,45.723z"/><path d="M55.715,45.723c4.234,0,7.668-1.136,7.668-5.727c0-4.592-3.434-8.314-7.668-8.314s-5.082,3.722-5.082,8.314   C50.633,44.587,51.48,45.723,55.715,45.723z"/><path d="M46.769,48.638c-1.062,0-2.014,1.159-2.682,2.572c-0.601,1.274-0.971,2.756-0.971,3.792c0,2.188,1.636,2.729,3.653,2.729   c2.018,0,2.422-0.541,2.422-2.729c0-1.008-0.088-2.435-0.378-3.684C48.474,49.855,47.858,48.638,46.769,48.638z"/><path d="M52.544,57.73c2.018,0,3.653-0.541,3.653-2.729c0-0.968-0.321-2.324-0.852-3.535c-0.671-1.529-1.677-2.829-2.802-2.829   c-1.099,0-1.716,1.238-2.053,2.719c-0.283,1.239-0.369,2.647-0.369,3.646C50.122,57.189,50.525,57.73,52.544,57.73z"/></g></svg>