<?xml version="1.0" encoding="UTF-8" standalone="no"?>
<svg
   xmlns:dc="http://purl.org/dc/elements/1.1/"
   xmlns:cc="http://creativecommons.org/ns#"
   xmlns:rdf="http://www.w3.org/1999/02/22-rdf-syntax-ns#"
   xmlns:svg="http://www.w3.org/2000/svg"
   xmlns="http://www.w3.org/2000/svg"
   xmlns:sodipodi="http://sodipodi.sourceforge.net/DTD/sodipodi-0.dtd"
   xmlns:inkscape="http://www.inkscape.org/namespaces/inkscape"
   xml:space="preserve"
   version="1.1"
   style="clip-rule:evenodd;fill-rule:evenodd;image-rendering:optimizeQuality;shape-rendering:geometricPrecision;text-rendering:geometricPrecision"
   viewBox="0 0 0.583 0.78399996"
   x="0px"
   y="0px"
   id="svg40"
   sodipodi:docname="nurse.svg"
   width="0.583"
   height="0.78399998"
   inkscape:version="0.92.3 (2405546, 2018-03-11)"><metadata
     id="metadata44"><rdf:RDF><cc:Work
         rdf:about=""><dc:format>image/svg+xml</dc:format><dc:type
           rdf:resource="http://purl.org/dc/dcmitype/StillImage" /><dc:title></dc:title></cc:Work></rdf:RDF></metadata><sodipodi:namedview
     pagecolor="#ffffff"
     bordercolor="#666666"
     borderopacity="1"
     objecttolerance="10"
     gridtolerance="10"
     guidetolerance="10"
     inkscape:pageopacity="0"
     inkscape:pageshadow="2"
     inkscape:window-width="304"
     inkscape:window-height="1035"
     id="namedview42"
     showgrid="false"
     fit-margin-top="0"
     fit-margin-left="0"
     fit-margin-right="0"
     fit-margin-bottom="0"
     inkscape:zoom="128"
     inkscape:cx="0.59267225"
     inkscape:cy="0.96668281"
     inkscape:window-x="1604"
     inkscape:window-y="8"
     inkscape:window-maximized="0"
     inkscape:current-layer="svg40" /><defs
     id="defs34"><style
       type="text/css"
       id="style32">
   
    .fil0 {fill:black;fill-rule:nonzero}
   
  </style></defs><g
     id="g38"><path
       class="fil0"
       d="m 0.09,0.149 c -0.036,0.037 -0.05,0.08 -0.052,0.123 -0.001,0.01 0,0.021 0,0.032 C 0.069,0.302 0.097,0.293 0.12,0.281 0.148,0.266 0.169,0.246 0.179,0.228 0.172,0.219 0.167,0.21 0.162,0.2 0.143,0.203 0.123,0.206 0.103,0.21 0.097,0.211 0.091,0.207 0.09,0.201 0.09,0.2 0.09,0.2 0.09,0.199 Z M 0.501,0.127 C 0.549,0.17 0.568,0.223 0.571,0.274 0.575,0.353 0.54,0.431 0.516,0.467 0.496,0.497 0.473,0.515 0.449,0.522 0.422,0.53 0.395,0.525 0.369,0.511 0.365,0.513 0.361,0.515 0.357,0.516 L 0.365,0.549 C 0.39,0.552 0.417,0.56 0.442,0.569 0.478,0.582 0.51,0.597 0.52,0.606 0.535,0.619 0.552,0.647 0.565,0.68 c 0.01,0.029 0.018,0.062 0.018,0.093 0,0.006 -0.005,0.011 -0.011,0.011 H 0.011 C 0.005,0.784 0,0.779 0,0.773 0,0.742 0.007,0.709 0.018,0.68 0.031,0.647 0.048,0.619 0.063,0.606 0.073,0.597 0.104,0.582 0.141,0.569 0.166,0.56 0.193,0.552 0.218,0.549 L 0.226,0.516 C 0.222,0.514 0.218,0.512 0.214,0.509 0.189,0.522 0.163,0.526 0.138,0.518 0.114,0.511 0.091,0.494 0.071,0.463 0.047,0.427 0.012,0.35 0.016,0.271 0.019,0.218 0.039,0.164 0.09,0.12 v 0 -0.041 C 0.09,0.075 0.092,0.071 0.095,0.069 0.128,0.046 0.161,0.029 0.194,0.017 0.227,0.005 0.261,0 0.296,0 0.33,0 0.364,0.005 0.397,0.017 0.431,0.029 0.464,0.046 0.497,0.07 0.5,0.072 0.501,0.075 0.501,0.079 Z M 0.39,0.497 C 0.408,0.504 0.426,0.506 0.443,0.501 0.462,0.495 0.481,0.481 0.498,0.455 0.516,0.428 0.54,0.378 0.547,0.321 0.527,0.326 0.508,0.33 0.489,0.332 0.477,0.384 0.452,0.437 0.415,0.475 0.408,0.483 0.399,0.491 0.39,0.497 Z M 0.549,0.298 C 0.55,0.291 0.55,0.283 0.549,0.275 0.547,0.234 0.534,0.193 0.501,0.157 V 0.199 C 0.501,0.205 0.496,0.21 0.49,0.21 0.489,0.21 0.488,0.21 0.487,0.209 0.455,0.203 0.423,0.199 0.391,0.195 0.359,0.191 0.327,0.189 0.296,0.188 0.264,0.189 0.233,0.191 0.2,0.195 c -0.005,0 -0.01,0.001 -0.015,0.002 0.023,0.045 0.07,0.081 0.132,0.1 0.065,0.021 0.147,0.024 0.232,0.001 z M 0.216,0.571 C 0.194,0.575 0.17,0.582 0.148,0.589 0.114,0.601 0.085,0.615 0.077,0.622 0.064,0.633 0.05,0.658 0.038,0.688 0.03,0.711 0.023,0.737 0.022,0.762 H 0.561 C 0.559,0.737 0.553,0.711 0.544,0.688 0.533,0.658 0.518,0.633 0.505,0.622 0.498,0.615 0.469,0.601 0.435,0.589 0.413,0.582 0.389,0.575 0.367,0.571 0.366,0.587 0.359,0.602 0.349,0.614 0.337,0.627 0.321,0.636 0.303,0.638 0.299,0.639 0.295,0.639 0.291,0.639 0.287,0.639 0.284,0.639 0.28,0.638 0.262,0.636 0.246,0.627 0.234,0.614 0.223,0.602 0.217,0.587 0.216,0.571 Z M 0.247,0.523 0.238,0.561 C 0.237,0.563 0.237,0.565 0.237,0.567 c 0,0.012 0.005,0.023 0.013,0.032 0.008,0.009 0.02,0.016 0.033,0.018 0.003,0 0.006,0.001 0.008,0.001 C 0.294,0.618 0.297,0.617 0.3,0.617 0.313,0.615 0.324,0.608 0.333,0.599 0.341,0.59 0.346,0.579 0.346,0.567 0.346,0.565 0.345,0.563 0.345,0.561 L 0.336,0.524 C 0.322,0.527 0.307,0.53 0.291,0.53 0.276,0.53 0.261,0.527 0.247,0.523 Z M 0.198,0.173 C 0.23,0.17 0.263,0.167 0.295,0.167 h 0.001 c 0.032,0 0.065,0.003 0.097,0.006 0.028,0.004 0.057,0.008 0.086,0.013 V 0.084 C 0.45,0.064 0.42,0.048 0.39,0.038 0.359,0.027 0.328,0.021 0.296,0.022 H 0.295 C 0.264,0.021 0.232,0.027 0.201,0.038 0.171,0.048 0.141,0.064 0.112,0.084 V 0.186 C 0.141,0.181 0.17,0.177 0.198,0.173 Z M 0.25,0.087 H 0.285 V 0.052 H 0.306 V 0.087 H 0.341 V 0.109 H 0.306 V 0.143 H 0.285 V 0.109 H 0.25 Z M 0.041,0.325 C 0.049,0.378 0.072,0.426 0.089,0.451 0.106,0.477 0.125,0.492 0.144,0.498 0.16,0.502 0.176,0.501 0.192,0.495 0.181,0.487 0.172,0.478 0.163,0.468 0.125,0.426 0.102,0.368 0.091,0.316 0.076,0.321 0.059,0.324 0.041,0.325 Z M 0.112,0.308 C 0.121,0.358 0.144,0.414 0.179,0.454 0.208,0.486 0.245,0.508 0.291,0.508 0.336,0.508 0.372,0.489 0.4,0.46 0.432,0.427 0.454,0.381 0.466,0.334 0.409,0.339 0.356,0.332 0.31,0.318 0.262,0.302 0.221,0.278 0.193,0.246 0.18,0.265 0.158,0.285 0.13,0.3 0.124,0.303 0.118,0.306 0.112,0.308 Z"
       id="path36"
       inkscape:connector-curvature="0"
       style="fill:#000000;fill-rule:nonzero" /></g></svg>