<svg xmlns="http://www.w3.org/2000/svg" xmlns:xlink="http://www.w3.org/1999/xlink" xml:space="preserve" version="1.1" style="shape-rendering:geometricPrecision;text-rendering:geometricPrecision;image-rendering:optimizeQuality;" viewBox="0 0 0.583 0.98" x="0px" y="0px" fill-rule="evenodd" clip-rule="evenodd"><defs><style type="text/css">
   
    .fil0 {fill:black;fill-rule:nonzero}
   
  </style></defs><g><path class="fil0" d="M0.09 0.149c-0.036,0.037 -0.05,0.08 -0.052,0.123 -0.001,0.01 0,0.021 0,0.032 0.031,-0.002 0.059,-0.011 0.082,-0.023 0.028,-0.015 0.049,-0.035 0.059,-0.053 -0.007,-0.009 -0.012,-0.018 -0.017,-0.028 -0.019,0.003 -0.039,0.006 -0.059,0.01 -0.006,0.001 -0.012,-0.003 -0.013,-0.009 0,-0.001 0,-0.001 0,-0.002l0 -0.05zm0.411 -0.022c0.048,0.043 0.067,0.096 0.07,0.147 0.004,0.079 -0.031,0.157 -0.055,0.193 -0.02,0.03 -0.043,0.048 -0.067,0.055 -0.027,0.008 -0.054,0.003 -0.08,-0.011 -0.004,0.002 -0.008,0.004 -0.012,0.005l0.008 0.033c0.025,0.003 0.052,0.011 0.077,0.02 0.036,0.013 0.068,0.028 0.078,0.037 0.015,0.013 0.032,0.041 0.045,0.074 0.01,0.029 0.018,0.062 0.018,0.093 0,0.006 -0.005,0.011 -0.011,0.011l-0.561 0c-0.006,0 -0.011,-0.005 -0.011,-0.011 0,-0.031 0.007,-0.064 0.018,-0.093 0.013,-0.033 0.03,-0.061 0.045,-0.074 0.01,-0.009 0.041,-0.024 0.078,-0.037 0.025,-0.009 0.052,-0.017 0.077,-0.02l0.008 -0.033c-0.004,-0.002 -0.008,-0.004 -0.012,-0.007 -0.025,0.013 -0.051,0.017 -0.076,0.009 -0.024,-0.007 -0.047,-0.024 -0.067,-0.055 -0.024,-0.036 -0.059,-0.113 -0.055,-0.192 0.003,-0.053 0.023,-0.107 0.074,-0.151l0 0 0 -0.041c0,-0.004 0.002,-0.008 0.005,-0.01 0.033,-0.023 0.066,-0.04 0.099,-0.052 0.033,-0.012 0.067,-0.017 0.102,-0.017 0.034,0 0.068,0.005 0.101,0.017 0.034,0.012 0.067,0.029 0.1,0.053 0.003,0.002 0.004,0.005 0.004,0.009l0 0.048zm-0.111 0.37c0.018,0.007 0.036,0.009 0.053,0.004 0.019,-0.006 0.038,-0.02 0.055,-0.046 0.018,-0.027 0.042,-0.077 0.049,-0.134 -0.02,0.005 -0.039,0.009 -0.058,0.011 -0.012,0.052 -0.037,0.105 -0.074,0.143 -0.007,0.008 -0.016,0.016 -0.025,0.022zm0.159 -0.199c0.001,-0.007 0.001,-0.015 0,-0.023 -0.002,-0.041 -0.015,-0.082 -0.048,-0.118l0 0.042c0,0.006 -0.005,0.011 -0.011,0.011 -0.001,0 -0.002,0 -0.003,-0.001 -0.032,-0.006 -0.064,-0.01 -0.096,-0.014 -0.032,-0.004 -0.064,-0.006 -0.095,-0.007 -0.032,0.001 -0.063,0.003 -0.096,0.007 -0.005,0 -0.01,0.001 -0.015,0.002 0.023,0.045 0.07,0.081 0.132,0.1 0.065,0.021 0.147,0.024 0.232,0.001zm-0.333 0.273c-0.022,0.004 -0.046,0.011 -0.068,0.018 -0.034,0.012 -0.063,0.026 -0.071,0.033 -0.013,0.011 -0.027,0.036 -0.039,0.066 -0.008,0.023 -0.015,0.049 -0.016,0.074l0.539 0c-0.002,-0.025 -0.008,-0.051 -0.017,-0.074 -0.011,-0.03 -0.026,-0.055 -0.039,-0.066 -0.007,-0.007 -0.036,-0.021 -0.07,-0.033 -0.022,-0.007 -0.046,-0.014 -0.068,-0.018 -0.001,0.016 -0.008,0.031 -0.018,0.043 -0.012,0.013 -0.028,0.022 -0.046,0.024 -0.004,0.001 -0.008,0.001 -0.012,0.001 -0.004,0 -0.007,0 -0.011,-0.001 -0.018,-0.002 -0.034,-0.011 -0.046,-0.024 -0.011,-0.012 -0.017,-0.027 -0.018,-0.043zm0.031 -0.048l-0.009 0.038c-0.001,0.002 -0.001,0.004 -0.001,0.006 0,0.012 0.005,0.023 0.013,0.032 0.008,0.009 0.02,0.016 0.033,0.018 0.003,0 0.006,0.001 0.008,0.001 0.003,0 0.006,-0.001 0.009,-0.001 0.013,-0.002 0.024,-0.009 0.033,-0.018 0.008,-0.009 0.013,-0.02 0.013,-0.032 0,-0.002 -0.001,-0.004 -0.001,-0.006l-0.009 -0.037c-0.014,0.003 -0.029,0.006 -0.045,0.006 -0.015,0 -0.03,-0.003 -0.044,-0.007zm-0.049 -0.35c0.032,-0.003 0.065,-0.006 0.097,-0.006l0.001 0c0.032,0 0.065,0.003 0.097,0.006 0.028,0.004 0.057,0.008 0.086,0.013l0 -0.102c-0.029,-0.02 -0.059,-0.036 -0.089,-0.046 -0.031,-0.011 -0.062,-0.017 -0.094,-0.016l-0.001 0c-0.031,-0.001 -0.063,0.005 -0.094,0.016 -0.03,0.01 -0.06,0.026 -0.089,0.046l0 0.102c0.029,-0.005 0.058,-0.009 0.086,-0.013zm0.052 -0.086l0.035 0 0 -0.035 0.021 0 0 0.035 0.035 0 0 0.022 -0.035 0 0 0.034 -0.021 0 0 -0.034 -0.035 0 0 -0.022zm-0.209 0.238c0.008,0.053 0.031,0.101 0.048,0.126 0.017,0.026 0.036,0.041 0.055,0.047 0.016,0.004 0.032,0.003 0.048,-0.003 -0.011,-0.008 -0.02,-0.017 -0.029,-0.027 -0.038,-0.042 -0.061,-0.1 -0.072,-0.152 -0.015,0.005 -0.032,0.008 -0.05,0.009zm0.071 -0.017c0.009,0.05 0.032,0.106 0.067,0.146 0.029,0.032 0.066,0.054 0.112,0.054 0.045,0 0.081,-0.019 0.109,-0.048 0.032,-0.033 0.054,-0.079 0.066,-0.126 -0.057,0.005 -0.11,-0.002 -0.156,-0.016 -0.048,-0.016 -0.089,-0.04 -0.117,-0.072 -0.013,0.019 -0.035,0.039 -0.063,0.054 -0.006,0.003 -0.012,0.006 -0.018,0.008z"/></g></svg>