<?xml version="1.0" encoding="UTF-8" standalone="no"?>
<svg
   xmlns:dc="http://purl.org/dc/elements/1.1/"
   xmlns:cc="http://creativecommons.org/ns#"
   xmlns:rdf="http://www.w3.org/1999/02/22-rdf-syntax-ns#"
   xmlns:svg="http://www.w3.org/2000/svg"
   xmlns="http://www.w3.org/2000/svg"
   xmlns:sodipodi="http://sodipodi.sourceforge.net/DTD/sodipodi-0.dtd"
   xmlns:inkscape="http://www.inkscape.org/namespaces/inkscape"
   version="1.1"
   x="0px"
   y="0px"
   viewBox="0 0 81.143288 81.962471"
   xml:space="preserve"
   id="svg10"
   sodipodi:docname="pen.svg"
   width="81.143288"
   height="81.962471"
   inkscape:version="0.92.3 (2405546, 2018-03-11)"><metadata
     id="metadata16"><rdf:RDF><cc:Work
         rdf:about=""><dc:format>image/svg+xml</dc:format><dc:type
           rdf:resource="http://purl.org/dc/dcmitype/StillImage" /><dc:title></dc:title></cc:Work></rdf:RDF></metadata><defs
     id="defs14" /><sodipodi:namedview
     pagecolor="#ffffff"
     bordercolor="#666666"
     borderopacity="1"
     objecttolerance="10"
     gridtolerance="10"
     guidetolerance="10"
     inkscape:pageopacity="0"
     inkscape:pageshadow="2"
     inkscape:window-width="944"
     inkscape:window-height="511"
     id="namedview12"
     showgrid="false"
     fit-margin-top="0"
     fit-margin-left="0"
     fit-margin-right="0"
     fit-margin-bottom="0"
     inkscape:zoom="1.888"
     inkscape:cx="-47.053262"
     inkscape:cy="28.037"
     inkscape:window-x="964"
     inkscape:window-y="532"
     inkscape:window-maximized="0"
     inkscape:current-layer="svg10" /><style
     type="text/css"
     id="style2">
	.st0{fill:none;stroke:#000000;stroke-width:2;stroke-linecap:round;stroke-linejoin:round;stroke-miterlimit:10;}
	.st1{fill:none;stroke:#000000;stroke-width:2;stroke-miterlimit:10;}
</style><path
     d="m 51.962298,9.3834701 c 0.469,-0.644 0.659,-1.432 0.536,-2.22 -0.124,-0.787 -0.547,-1.479 -1.191,-1.949 l -6.379,-4.64399998 c -1.331,-0.969 -3.199,-0.673 -4.169,0.65599998 l -3.303,4.537 -0.938,1.288 c 0,0 0,0 0,0 l -24.195,33.2329999 c -0.156,0.214 -0.221,0.482 -0.18,0.744 0.042,0.262 0.186,0.497 0.399,0.653 l 0.335,0.244 -4.2440004,10.646 c -0.17,0.424 -0.029,0.91 0.34,1.179 l 2.4470004,1.782 c 0.176,0.128 0.383,0.191 0.589,0.191 0.227,0 0.453,-0.077 0.638,-0.229 l 8.828,-7.308 0.653,0.475 c 0.178,0.129 0.384,0.191 0.588,0.191 0.309,0 0.613,-0.143 0.81,-0.412 l 3.314,-4.551 c 0,-0.001 10e-4,-0.001 0.002,-0.002 l 1.978,-2.716 c 10e-4,-10e-4 10e-4,-0.003 0.002,-0.004 l 18.899,-25.958 0.001,-10e-4 1.978,-2.716 c 0,0 0,-0.001 0,-0.001 z m -4.552,2.8539999 -0.718,0.987 -7.969,-5.8019999 0.718,-0.987 0.082,-0.112 7.969,5.8019999 z m -9.864,-3.1979999 7.969,5.8019999 -17.725,24.344 -7.969,-5.802 z m -11.733,32.8619999 -7.968,-5.802 0.8,-1.099 7.969,5.802 z m -11.267,1.239 5.261,3.83 -7.837,6.487 -1.191,-0.867 z m -0.017,-2.487 2.138,-2.936 7.969,5.802 -2.138,2.936 -0.472,-0.344 v 0 l -7.342,-5.346 c 0,0 -10e-4,0 -10e-4,0 z m 35.992,-33.1789999 c 0.041,0.26 -0.021,0.52 -0.177,0.732 l -1.675,2.3009999 -7.969,-5.8019999 1.675,-2.301 c 0.319,-0.438 0.937,-0.537 1.374,-0.216 l 6.379,4.644 c 0.214,0.155 0.353,0.383 0.393,0.642 z"
     id="path4"
     inkscape:connector-curvature="0" /><path
     d="M 45.608298,66.75647 5.6532976,56.64147 c -1.596,-0.403 -3.222,0.566 -3.625,2.161 l -1.93699995,7.648 c -0.403,1.595 0.566,3.221 2.16099995,3.625 l 3.728,0.944 v 0 l 0.279,0.071 34.1090004,8.634 v 0 l 3.258,0.825 c 0,0 0.001,0 0.002,0 l 5.458,1.382 c 0.081,0.021 0.163,0.031 0.245,0.031 0.179,0 0.355,-0.048 0.512,-0.141 0.229,-0.136 0.393,-0.356 0.458,-0.614 l 0.101,-0.4 11.46,-0.023 c 0.457,-0.001 0.855,-0.312 0.968,-0.754 l 0.743,-2.935 c 0.112,-0.443 -0.091,-0.906 -0.492,-1.124 l -10.07,-5.474 0.198,-0.784 c 0.135,-0.535 -0.188,-1.079 -0.725,-1.214 l -5.459,-1.382 v 0 z m -0.042,2.052 -2.418,9.556 -1.197,-0.303 -0.121,-0.031 2.418,-9.556 0.64,0.162 z m -3.257,-0.824 -2.418,9.556 -29.193,-7.389 2.419,-9.556 z m -34.8680004,1.341 2.418,-9.556 1.3190004,0.334 -2.4190004,9.556 z m 43.4680004,9.48 1.597,-6.309 8.938,4.859 -0.361,1.429 z m -2.301,0.941 -3.521,-0.891 2.418,-9.556 3.521,0.891 -0.143,0.566 c 0,0 0,0 0,0 l -2.229,8.805 c 0,0.001 0,0.002 0,0.003 z m -40.6870004,-20.468 -2.419,9.556 -2.759,-0.698 c -0.525,-0.133 -0.845,-0.669 -0.712,-1.196 l 1.937,-7.648 c 0,0 0,0 0,0 0.133,-0.526 0.67,-0.844 1.195,-0.712 z"
     id="path6"
     inkscape:connector-curvature="0" /><path
     d="m 81.065298,28.88447 c 0.18,-0.777 0.046,-1.577 -0.377,-2.253 l -4.18,-6.69 c -0.873,-1.396 -2.719,-1.819 -4.111,-0.95 l -3.261,2.038 c 0,0 0,0 0,0 l -2.85,1.78 c 0,0 0,0 0,0 l -34.861,21.779 c -0.468,0.292 -0.61,0.91 -0.317,1.378 l 0.218,0.35 -7.917,8.289 c -0.315,0.33 -0.366,0.833 -0.124,1.22 l 1.604,2.568 c 0.186,0.298 0.51,0.47 0.848,0.47 0.102,0 0.203,-0.015 0.304,-0.047 l 10.92,-3.48 0.428,0.686 c 0.14,0.225 0.364,0.385 0.623,0.444 0.074,0.018 0.149,0.026 0.225,0.026 0.186,0 0.37,-0.052 0.53,-0.152 l 4.773,-2.982 c 10e-4,-10e-4 0.003,-10e-4 0.004,-0.002 l 2.849,-1.78 v 0 l 33.346,-20.833 c 0.677,-0.422 1.147,-1.083 1.326,-1.859 z m -55.673,26.541 7.026,-7.357 3.448,5.519 -9.693,3.089 z m 41.106,-30.39 5.222,8.36 -25.54,15.956 -5.222,-8.36 z m -27.235,17.015 5.223,8.36 -0.048,0.03 -1.105,0.69 -5.223,-8.359 0.396,-0.247 z m 30.085,-18.795 5.222,8.359 -1.153,0.721 -5.222,-8.359 z m -36.015,22.5 3.081,-1.925 5.223,8.36 -3.081,1.925 z m 45.784,-17.321 c -0.06,0.256 -0.215,0.474 -0.438,0.613 l -2.414,1.508 -5.222,-8.359 2.414,-1.508 c 0.161,-0.101 0.341,-0.149 0.519,-0.149 0.329,0 0.65,0.164 0.837,0.463 l 4.18,6.69 v 0 c 0.139,0.222 0.184,0.486 0.124,0.742 z"
     id="path8"
     inkscape:connector-curvature="0" /></svg>