<?xml version="1.0" encoding="UTF-8" standalone="no"?>
<svg
   xmlns:dc="http://purl.org/dc/elements/1.1/"
   xmlns:cc="http://creativecommons.org/ns#"
   xmlns:rdf="http://www.w3.org/1999/02/22-rdf-syntax-ns#"
   xmlns:svg="http://www.w3.org/2000/svg"
   xmlns="http://www.w3.org/2000/svg"
   xmlns:sodipodi="http://sodipodi.sourceforge.net/DTD/sodipodi-0.dtd"
   xmlns:inkscape="http://www.inkscape.org/namespaces/inkscape"
   version="1.1"
   x="0px"
   y="0px"
   viewBox="0 0 190.48392 91.353775"
   xml:space="preserve"
   id="svg16"
   sodipodi:docname="tank.svg"
   width="190.48392"
   height="91.353775"
   inkscape:version="0.92.3 (2405546, 2018-03-11)"><metadata
     id="metadata22"><rdf:RDF><cc:Work
         rdf:about=""><dc:format>image/svg+xml</dc:format><dc:type
           rdf:resource="http://purl.org/dc/dcmitype/StillImage" /><dc:title></dc:title></cc:Work></rdf:RDF></metadata><defs
     id="defs20" /><sodipodi:namedview
     pagecolor="#ffffff"
     bordercolor="#666666"
     borderopacity="1"
     objecttolerance="10"
     gridtolerance="10"
     guidetolerance="10"
     inkscape:pageopacity="0"
     inkscape:pageshadow="2"
     inkscape:window-width="944"
     inkscape:window-height="511"
     id="namedview18"
     showgrid="false"
     fit-margin-top="0"
     fit-margin-left="0"
     fit-margin-right="0"
     fit-margin-bottom="0"
     inkscape:zoom="0.944"
     inkscape:cx="-81.019912"
     inkscape:cy="20.575"
     inkscape:window-x="964"
     inkscape:window-y="532"
     inkscape:window-maximized="0"
     inkscape:current-layer="svg16" /><g
     id="g14"
     transform="translate(-4.642793,-54.221225)"><path
       d="m 36.7,122.4 c -0.9,0 -1.7,0.3 -2.2,0.6 -0.6,0.4 -1,0.7 -1.1,1.2 -0.3,1 -0.8,1.7 -1.6,2.3 -0.8,0.6 -1.8,1 -3,1.1 -2.3,0.3 -4.6,-0.7 -5.6,-2.2 -0.4,-0.6 -0.7,-1.4 -0.8,-2.3 -0.1,-0.9 -0.1,-1.9 0.1,-2.7 0.4,-1.6 1.6,-3 3.5,-3.7 1.8,-0.7 4.1,-0.8 6,0.1 1.9,0.8 3.4,2.7 3.9,5.1 v 0 c 0.1,0.4 0.4,0.5 0.8,0.5 0.4,0 0.7,-0.2 0.8,-0.6 0.1,-1.4 -0.1,-3 -0.7,-4.4 -0.6,-1.5 -1.7,-2.7 -3,-3.7 -2.6,-1.9 -6.1,-2.6 -9.3,-1.8 -1.6,0.4 -3.3,1.1 -4.6,2.3 -1.4,1.2 -2.5,2.7 -3.1,4.4 -0.6,1.7 -0.8,3.5 -0.6,5.2 0.1,1.7 0.7,3.6 1.8,5.1 1.3,1.9 3.2,3.3 5.2,4.1 2,0.8 4.2,1.1 6.3,0.8 2.1,-0.2 4.2,-1 6,-2.3 1.8,-1.3 3.2,-3.3 3.9,-5.5 0.3,-1 0.1,-2 -0.4,-2.7 -0.7,-0.5 -1.4,-0.9 -2.3,-0.9 z"
       id="path2"
       inkscape:connector-curvature="0" /><path
       d="m 97.1,122.4 c -0.9,0 -1.7,0.3 -2.2,0.6 -0.6,0.4 -1,0.7 -1.1,1.2 -0.3,1 -0.8,1.7 -1.6,2.3 -0.8,0.6 -1.8,1 -3,1.1 -2.3,0.3 -4.6,-0.7 -5.6,-2.2 -0.4,-0.6 -0.7,-1.4 -0.8,-2.3 -0.1,-0.9 -0.1,-1.9 0.1,-2.7 0.4,-1.6 1.6,-3 3.5,-3.7 1.8,-0.7 4.1,-0.8 6,0.1 1.9,0.8 3.4,2.7 3.9,5.1 v 0 c 0.1,0.4 0.5,0.5 0.8,0.5 0.4,0 0.7,-0.2 0.8,-0.6 0.1,-1.4 -0.1,-3 -0.7,-4.4 -0.6,-1.5 -1.7,-2.7 -3,-3.7 -2.6,-1.9 -6.1,-2.6 -9.3,-1.8 -1.6,0.4 -3.3,1.1 -4.6,2.3 -1.4,1.2 -2.5,2.7 -3.1,4.4 -0.6,1.7 -0.8,3.5 -0.6,5.2 0.1,1.7 0.7,3.6 1.8,5.1 1.3,1.9 3.2,3.3 5.2,4.1 2,0.8 4.2,1.1 6.3,0.8 2.1,-0.2 4.2,-1 6,-2.3 1.8,-1.3 3.2,-3.3 3.9,-5.5 0.3,-1 0.1,-2 -0.4,-2.7 -0.6,-0.5 -1.4,-0.9 -2.3,-0.9 z"
       id="path4"
       inkscape:connector-curvature="0" /><path
       d="m 66.2,114.2 c -1.4,-1.2 -3,-1.9 -4.6,-2.3 -3.3,-0.7 -6.7,-0.1 -9.3,1.8 -1.3,1 -2.4,2.3 -3,3.7 -0.6,1.4 -0.8,3 -0.7,4.4 0,0.4 0.4,0.6 0.8,0.6 0.4,0 0.8,-0.2 0.8,-0.5 v 0 c 0.5,-2.5 2,-4.3 3.9,-5.1 1.9,-0.8 4.2,-0.8 6,-0.1 1.9,0.7 3.1,2.1 3.5,3.7 0.2,0.8 0.3,1.8 0.1,2.7 -0.1,0.9 -0.4,1.7 -0.8,2.3 -1,1.6 -3.3,2.5 -5.6,2.2 -1.1,-0.1 -2.2,-0.5 -3,-1.1 -0.8,-0.6 -1.3,-1.4 -1.6,-2.3 -0.1,-0.5 -0.5,-0.8 -1.1,-1.2 -0.6,-0.3 -1.4,-0.6 -2.2,-0.6 -0.9,0 -1.6,0.3 -2.2,1 -0.5,0.7 -0.7,1.7 -0.4,2.7 0.6,2.1 2,4.2 3.9,5.5 1.8,1.4 3.9,2.1 6,2.3 2.1,0.2 4.3,0 6.3,-0.8 2,-0.8 3.9,-2.2 5.2,-4.1 1.1,-1.6 1.6,-3.4 1.8,-5.1 0.1,-1.7 0,-3.5 -0.6,-5.2 -0.7,-1.8 -1.8,-3.4 -3.2,-4.5 z"
       id="path6"
       inkscape:connector-curvature="0" /><path
       d="m 126.6,114.2 c -1.4,-1.2 -3,-1.9 -4.6,-2.3 -3.3,-0.7 -6.7,-0.1 -9.3,1.8 -1.3,1 -2.4,2.3 -3,3.7 -0.6,1.4 -0.8,3 -0.7,4.4 0,0.4 0.4,0.6 0.8,0.6 0.4,0 0.8,-0.2 0.8,-0.5 v 0 c 0.5,-2.5 2,-4.3 3.9,-5.1 1.9,-0.8 4.2,-0.8 6,-0.1 1.9,0.7 3.1,2.1 3.5,3.7 0.2,0.8 0.3,1.8 0.1,2.7 -0.1,0.9 -0.4,1.7 -0.8,2.3 -1,1.6 -3.3,2.5 -5.6,2.2 -1.1,-0.1 -2.2,-0.5 -3,-1.1 -0.8,-0.6 -1.3,-1.4 -1.6,-2.3 -0.1,-0.5 -0.5,-0.8 -1.1,-1.2 -0.6,-0.3 -1.4,-0.6 -2.2,-0.6 -0.9,0 -1.6,0.3 -2.2,1 -0.5,0.7 -0.7,1.7 -0.4,2.7 0.6,2.1 2,4.2 3.9,5.5 1.8,1.4 3.9,2.1 6,2.3 2.1,0.2 4.3,0 6.3,-0.8 2,-0.8 3.9,-2.2 5.2,-4.1 1.1,-1.6 1.6,-3.4 1.8,-5.1 0.1,-1.7 0,-3.5 -0.6,-5.2 -0.7,-1.8 -1.8,-3.4 -3.2,-4.5 z"
       id="path8"
       inkscape:connector-curvature="0" /><path
       d="m 156.3,131.6 c 1.8,-1.3 3.2,-3.3 3.9,-5.5 0.3,-1 0.1,-2 -0.4,-2.7 -0.5,-0.7 -1.3,-1 -2.2,-1 -0.9,0 -1.7,0.3 -2.2,0.6 -0.6,0.4 -1,0.7 -1.1,1.2 -0.3,1 -0.8,1.7 -1.6,2.3 -0.8,0.6 -1.8,1 -3,1.1 -2.3,0.3 -4.6,-0.7 -5.6,-2.2 -0.4,-0.6 -0.7,-1.4 -0.8,-2.3 -0.1,-0.9 -0.1,-1.9 0.1,-2.7 0.4,-1.6 1.6,-3 3.5,-3.7 1.8,-0.7 4.1,-0.8 6,0.1 1.9,0.8 3.4,2.7 3.9,5.1 v 0 c 0.1,0.3 0.4,0.5 0.8,0.5 0.4,0 0.7,-0.2 0.8,-0.6 0.1,-1.4 -0.1,-3 -0.7,-4.4 -0.6,-1.5 -1.7,-2.7 -3,-3.7 -2.6,-1.9 -6.1,-2.6 -9.3,-1.8 -1.6,0.4 -3.3,1.1 -4.6,2.3 -1.4,1.2 -2.5,2.7 -3.1,4.4 -0.6,1.7 -0.8,3.5 -0.6,5.2 0.1,1.7 0.7,3.6 1.8,5.1 1.3,1.9 3.2,3.3 5.2,4.1 2,0.8 4.2,1.1 6.3,0.8 2,-0.1 4.1,-0.9 5.9,-2.2 z"
       id="path10"
       inkscape:connector-curvature="0" /><path
       d="m 194.4,68.6 c -14.8,-1.5 -29.7,-2.3 -44.6,-2.3 h -27.3 c -1.2,0 -2.2,0.4 -2.9,1.1 -0.1,-0.2 -0.2,-0.4 -0.4,-0.6 -2.7,-4.3 -7.1,-7.2 -11.6,-9.1 -4.5,-1.9 -9.3,-2.8 -14.1,-3.2 -4.7,-0.4 -9.5,-0.4 -14.2,0.2 -5.8,0.8 -11.8,2.2 -17.1,5.8 -2.6,1.8 -5,4 -6.7,6.8 -0.5,0.6 -0.8,1.4 -1.2,2.1 -0.4,0.7 -0.7,1.4 -1,2.2 l -0.8,2.3 c -0.2,0.8 -0.3,1.5 -0.5,2.3 -0.2,0.7 -0.2,1.3 -0.1,1.9 -0.8,0.1 -1.5,0.1 -2.4,0.3 -0.9,0.2 -1.8,0.5 -2.6,0.9 -0.4,0.2 -0.8,0.4 -1.1,0.7 -0.4,0.2 -0.7,0.5 -1,0.7 -2.6,2 -4.5,4.3 -6.2,6.5 -1.7,2.3 -3.3,4.6 -4.8,6.9 l -1.1,1.7 -0.9,1.3 c -0.4,0.6 -0.8,1.1 -1.2,1.7 -0.1,0.2 -0.3,0.4 -0.4,0.6 -3.7,0 -7.5,0.4 -11.3,1.8 -2.4,1 -4.6,2.2 -6.6,3.8 -2,1.6 -3.7,3.6 -5,5.9 -2.6,4.6 -3.2,10.1 -2.2,15.1 1.3,6.1 5,11.7 10.2,15.1 2.6,1.8 5.6,2.9 8.7,3.5 1.5,0.3 3.2,0.4 4.5,0.5 l 4.1,0.2 c 11,0.4 21.9,0.3 32.8,0.1 l 16.3,-0.3 c 5.4,-0.1 10.8,0 16.3,0 h 32.6 c 10.3,0 18.7,-1.4 18.7,-3.1 0,-1.7 -8.4,-3.1 -18.7,-3.1 H 98.1 c -5.4,0 -10.9,0 -16.3,0 l -16.3,0.3 c -10.9,0.2 -21.7,0.4 -32.4,-0.1 -2.6,-0.1 -5.5,-0.2 -7.7,-0.6 -2.3,-0.4 -4.5,-1.3 -6.4,-2.6 -3.8,-2.5 -6.6,-6.7 -7.5,-11.2 -0.8,-3.7 -0.3,-7.6 1.5,-10.8 0.9,-1.6 2.1,-3 3.6,-4.2 1.4,-1.2 3.2,-2.2 4.9,-2.8 1.5,-0.6 3.2,-0.9 5,-1.1 6,0 12,0 18,0 h 87.7 c 4.3,0 8,-0.5 10.3,-1.3 1.4,0 2.9,0 4.3,0 2.2,0.1 4.2,0.1 6.2,0.6 3.9,0.9 7.6,3.1 10,6.4 2.5,3.2 3.8,7.4 3.9,11.5 0.1,4.2 -1.1,8.4 -3.7,11.7 -2.5,3.3 -6.4,5.5 -10.6,6.2 v 0 c -1.1,0.2 -1.9,0.3 -2.5,0.5 -0.6,0.2 -0.9,0.4 -0.9,0.6 0,0.2 0.3,0.4 0.9,0.5 0.6,0.1 1.5,0.2 2.7,0 v 0 c 4.6,-0.5 9.1,-2.7 12.1,-6.4 3,-3.6 4.6,-8.4 4.7,-13 0.1,-4.7 -1.3,-9.5 -4.1,-13.4 -2.7,-4 -7,-6.8 -11.7,-8 -2.3,-0.6 -4.8,-0.8 -7,-0.9 -0.9,0 -1.9,-0.1 -2.8,-0.1 0,-0.1 -0.1,-0.1 -0.1,-0.2 v 0 C 141,96 138.4,91.1 135,86.7 c -1.7,-2.2 -3.6,-4.4 -6.4,-5.9 -0.7,-0.3 -1.5,-0.7 -2.2,-0.9 -0.8,-0.2 -1.5,-0.3 -2.3,-0.4 -0.5,-0.1 -1.1,-0.1 -1.6,-0.1 0,-2.3 -0.2,-4.6 -0.9,-6.8 0.2,0 0.5,0.1 0.7,0.1 h 27.3 c 14.9,0 29.8,-0.8 44.6,-2.3 1.2,-0.3 1.2,-1.7 0.2,-1.8 z m -135.6,6.9 0.6,-1.7 c 0.2,-0.6 0.4,-1.1 0.7,-1.6 0.3,-0.5 0.5,-1.1 0.8,-1.5 1.2,-2 3,-3.6 4.9,-5 4,-2.7 9.1,-4.1 14.3,-4.7 4.3,-0.5 8.7,-0.6 13.1,-0.5 4.4,0.2 8.7,0.7 12.7,2 4,1.3 7.8,3.2 10.4,6.4 2.4,2.8 3.9,6.5 4.5,10.4 -0.3,0 -0.6,0 -0.9,0 -2.8,0.1 -5.6,0.4 -8.1,0.3 L 103.6,79.4 87.2,79.1 70.8,78.8 66.7,78.7 c -1.3,0 -2.8,0 -4,-0.1 -1.5,-0.1 -3.1,-0.3 -4.7,-0.4 0.1,-0.3 0.2,-0.7 0.3,-1 0.2,-0.5 0.3,-1.1 0.5,-1.7 z m 68.6,7.9 c 2.1,1 4,2.9 5.7,4.9 3.3,3.8 6,8.1 9.1,12.3 -0.4,0 -0.8,0 -1.2,0 -2.3,-0.6 -5.4,-0.9 -8.8,-0.9 H 44.4 38.1 c -0.4,0 -0.2,0 -0.3,0 v 0 0 0 c 0,0 0,0 0,0 v 0 0 l 0.3,-0.4 1.1,-1.7 c 1.5,-2.3 2.9,-4.5 4.5,-6.6 1.5,-2.1 3.2,-4.1 4.9,-5.4 0.2,-0.2 0.4,-0.3 0.6,-0.5 0.2,-0.1 0.4,-0.3 0.6,-0.4 0.4,-0.2 0.8,-0.4 1.2,-0.5 1,-0.2 2.2,-0.3 3.4,-0.3 2.5,0 5.2,0.3 8.1,0.4 1.6,0.1 2.8,0 4.2,0 l 4.1,-0.1 16.5,-0.2 16.4,-0.3 8.2,-0.2 c 2.9,-0.1 5.6,-0.5 8.3,-0.7 2.5,-0.2 5.2,-0.4 7.2,0.6 z"
       id="path12"
       inkscape:connector-curvature="0" /></g></svg>