<svg xmlns="http://www.w3.org/2000/svg" data-name="Layer 1" viewBox="0 0 100 125" x="0px" y="0px"><title>Artboard 9</title><path d="M85.39,22.54H83.58A12.06,12.06,0,0,0,73.69,1.36a11.81,11.81,0,0,0-9.66,10,12,12,0,0,0,4.28,11.2h-.4A13.77,13.77,0,0,0,56,29.42l-2.73,4.73L46.42,30a7.39,7.39,0,0,0-10,2.46,7.35,7.35,0,0,0,2.46,10.17l12.29,7.5A8.5,8.5,0,0,0,62,48.27V60.48a2.5,2.5,0,0,0,5,0V41.05a2.5,2.5,0,0,0-4.47-1.54L58.24,45a3.48,3.48,0,0,1-4.5.85L41.46,38.3a2.35,2.35,0,0,1,2.39-4.06l9,5.5a2.5,2.5,0,0,0,3.47-.89l4-6.94a8.75,8.75,0,0,1,7.56-4.37h1.66a4.59,4.59,0,0,0,2.5-8.44,7,7,0,0,1-3.1-7,6.88,6.88,0,0,1,5.62-5.81,7.06,7.06,0,0,1,5.22,12.83,4.59,4.59,0,0,0,2.52,8.43h3.07a9.12,9.12,0,0,1,9.11,9.11v19.2a2.3,2.3,0,1,1-4.6,0v-15a2.5,2.5,0,0,0-5,0v15a7.3,7.3,0,1,0,14.6,0V36.65A14.12,14.12,0,0,0,85.39,22.54Z"/><path d="M3,98.84a2.5,2.5,0,0,0,2.5-2.5V93.56a6.36,6.36,0,0,1,6.35-6.35,4.66,4.66,0,0,0,2.57-8.54,6.4,6.4,0,0,1-2.83-5.29A6.53,6.53,0,0,1,17.8,67a6.4,6.4,0,0,1,3.77,11.71,4.66,4.66,0,0,0,2.58,8.53,6.36,6.36,0,0,1,6.35,6.35v2.78a2.5,2.5,0,0,0,5,0V93.56a6.36,6.36,0,0,1,6.35-6.35,4.66,4.66,0,0,0,2.57-8.54,6.39,6.39,0,0,1-2.82-5.29A6.53,6.53,0,0,1,47.81,67a6.4,6.4,0,0,1,3.77,11.71,4.66,4.66,0,0,0,2.58,8.53,6.36,6.36,0,0,1,6.35,6.35v2.78a2.5,2.5,0,0,0,5,0V93.56a6.36,6.36,0,0,1,6.35-6.35,4.66,4.66,0,0,0,2.57-8.54,6.39,6.39,0,0,1-2.83-5.29A6.53,6.53,0,0,1,77.81,67a6.4,6.4,0,0,1,3.77,11.71,4.66,4.66,0,0,0,2.58,8.53,6.36,6.36,0,0,1,6.35,6.35v2.78a2.5,2.5,0,1,0,5,0V93.56A11.37,11.37,0,0,0,85.15,82.25a11.41,11.41,0,1,0-14.28,0A11.34,11.34,0,0,0,63,86.47a11.34,11.34,0,0,0-7.86-4.22,11.4,11.4,0,1,0-14.28,0A11.34,11.34,0,0,0,33,86.47a11.34,11.34,0,0,0-7.86-4.22,11.4,11.4,0,1,0-14.28,0A11.37,11.37,0,0,0,.5,93.56v2.78A2.5,2.5,0,0,0,3,98.84Z"/><path d="M8.65,6.16h51a2.5,2.5,0,0,0,0-5h-51A8.16,8.16,0,0,0,.5,9.3V48.63a8.16,8.16,0,0,0,8.15,8.15H44.78a2.5,2.5,0,0,0,0-5H8.65A3.15,3.15,0,0,1,5.5,48.63V9.3A3.15,3.15,0,0,1,8.65,6.16Z"/></svg>